<?xml version="1.0" encoding="utf-8" standalone="no"?>
<!DOCTYPE svg PUBLIC "-//W3C//DTD SVG 1.1//EN"
  "http://www.w3.org/Graphics/SVG/1.1/DTD/svg11.dtd">
<svg xmlns:xlink="http://www.w3.org/1999/xlink" width="576pt" height="576pt" viewBox="0 0 576 576" xmlns="http://www.w3.org/2000/svg" version="1.1">
 <metadata>
  <rdf:RDF xmlns:dc="http://purl.org/dc/elements/1.1/" xmlns:cc="http://creativecommons.org/ns#" xmlns:rdf="http://www.w3.org/1999/02/22-rdf-syntax-ns#">
   <cc:Work>
    <dc:type rdf:resource="http://purl.org/dc/dcmitype/StillImage"/>
    <dc:date>2026-04-29T13:57:06.856119</dc:date>
    <dc:format>image/svg+xml</dc:format>
    <dc:creator>
     <cc:Agent>
      <dc:title>Matplotlib v3.9.4, https://matplotlib.org/</dc:title>
     </cc:Agent>
    </dc:creator>
   </cc:Work>
  </rdf:RDF>
 </metadata>
 <defs>
  <style type="text/css">*{stroke-linejoin: round; stroke-linecap: butt}</style>
 </defs>
 <g id="figure_1">
  <g id="patch_1">
   <path d="M 0 576 
L 576 576 
L 576 0 
L 0 0 
z
" style="fill: #ffffff"/>
  </g>
  <g id="axes_1">
   <g id="patch_2">
    <path d="M 499.0657 275.1732 
C 499.0657 246.848628 493.486377 218.799478 482.647033 192.630986 
C 471.807689 166.462494 455.919121 142.683572 435.890624 122.655076 
C 415.862128 102.626579 392.083206 86.738011 365.914714 75.898667 
C 339.746222 65.059323 311.697072 59.48 283.3725 59.48 
C 255.047928 59.48 226.998778 65.059323 200.830286 75.898667 
C 174.661794 86.738011 150.882872 102.626579 130.854376 122.655076 
C 110.825879 142.683572 94.937311 166.462494 84.097967 192.630986 
C 73.258623 218.799478 67.6793 246.848628 67.6793 275.1732 
C 67.6793 303.497772 73.258623 331.546922 84.097967 357.715414 
C 94.937311 383.883906 110.825879 407.662828 130.854376 427.691324 
C 150.882872 447.719821 174.661794 463.608389 200.830286 474.447733 
C 226.998778 485.287077 255.047928 490.8664 283.3725 490.8664 
C 311.697072 490.8664 339.746222 485.287077 365.914714 474.447733 
C 392.083206 463.608389 415.862128 447.719821 435.890624 427.691324 
C 455.919121 407.662828 471.807689 383.883906 482.647033 357.715414 
C 493.486377 331.546922 499.0657 303.497772 499.0657 275.1732 
M 283.3725 275.1732 
C 283.3725 275.1732 283.3725 275.1732 283.3725 275.1732 
C 283.3725 275.1732 283.3725 275.1732 283.3725 275.1732 
C 283.3725 275.1732 283.3725 275.1732 283.3725 275.1732 
C 283.3725 275.1732 283.3725 275.1732 283.3725 275.1732 
C 283.3725 275.1732 283.3725 275.1732 283.3725 275.1732 
C 283.3725 275.1732 283.3725 275.1732 283.3725 275.1732 
C 283.3725 275.1732 283.3725 275.1732 283.3725 275.1732 
C 283.3725 275.1732 283.3725 275.1732 283.3725 275.1732 
C 283.3725 275.1732 283.3725 275.1732 283.3725 275.1732 
C 283.3725 275.1732 283.3725 275.1732 283.3725 275.1732 
C 283.3725 275.1732 283.3725 275.1732 283.3725 275.1732 
C 283.3725 275.1732 283.3725 275.1732 283.3725 275.1732 
C 283.3725 275.1732 283.3725 275.1732 283.3725 275.1732 
C 283.3725 275.1732 283.3725 275.1732 283.3725 275.1732 
C 283.3725 275.1732 283.3725 275.1732 283.3725 275.1732 
C 283.3725 275.1732 283.3725 275.1732 283.3725 275.1732 
L 283.3725 275.1732 
z
" style="fill: none"/>
   </g>
   <g id="line2d_1">
    <path d="M 283.3725 219.709234 
L 378.688352 275.1732 
L 283.3725 365.558922 
L 180.661452 275.1732 
L 283.3725 219.709234 
" clip-path="url(#p4857693173)" style="fill: none; stroke: #e74c3c; stroke-opacity: 0.7; stroke-width: 2; stroke-linecap: square"/>
   </g>
   <g id="line2d_2">
    <path d="M 283.3725 119.052408 
L 448.942709 275.1732 
L 283.3725 445.673539 
L 116.980603 275.1732 
L 283.3725 119.052408 
" clip-path="url(#p4857693173)" style="fill: none; stroke: #f1c40f; stroke-opacity: 0.7; stroke-width: 2; stroke-linecap: square"/>
   </g>
   <g id="matplotlib.axis_1">
    <g id="xtick_1">
     <g id="line2d_3">
      <path d="M 283.3725 275.1732 
L 283.3725 59.48 
" clip-path="url(#p4857693173)" style="fill: none; stroke: #d1d1d1; stroke-linecap: square"/>
     </g>
     <g id="text_1">
      <!-- STOI -->
      <g style="fill: #222222" transform="translate(267.625313 48.79125) scale(0.12 -0.12)">
       <defs>
        <path id="DejaVuSans-Bold-53" d="M 3834 4519 
L 3834 3531 
Q 3450 3703 3084 3790 
Q 2719 3878 2394 3878 
Q 1963 3878 1756 3759 
Q 1550 3641 1550 3391 
Q 1550 3203 1689 3098 
Q 1828 2994 2194 2919 
L 2706 2816 
Q 3484 2659 3812 2340 
Q 4141 2022 4141 1434 
Q 4141 663 3683 286 
Q 3225 -91 2284 -91 
Q 1841 -91 1394 -6 
Q 947 78 500 244 
L 500 1259 
Q 947 1022 1364 901 
Q 1781 781 2169 781 
Q 2563 781 2772 912 
Q 2981 1044 2981 1288 
Q 2981 1506 2839 1625 
Q 2697 1744 2272 1838 
L 1806 1941 
Q 1106 2091 782 2419 
Q 459 2747 459 3303 
Q 459 4000 909 4375 
Q 1359 4750 2203 4750 
Q 2588 4750 2994 4692 
Q 3400 4634 3834 4519 
z
" transform="scale(0.015625)"/>
        <path id="DejaVuSans-Bold-54" d="M 31 4666 
L 4331 4666 
L 4331 3756 
L 2784 3756 
L 2784 0 
L 1581 0 
L 1581 3756 
L 31 3756 
L 31 4666 
z
" transform="scale(0.015625)"/>
        <path id="DejaVuSans-Bold-4f" d="M 2719 3878 
Q 2169 3878 1866 3472 
Q 1563 3066 1563 2328 
Q 1563 1594 1866 1187 
Q 2169 781 2719 781 
Q 3272 781 3575 1187 
Q 3878 1594 3878 2328 
Q 3878 3066 3575 3472 
Q 3272 3878 2719 3878 
z
M 2719 4750 
Q 3844 4750 4481 4106 
Q 5119 3463 5119 2328 
Q 5119 1197 4481 553 
Q 3844 -91 2719 -91 
Q 1597 -91 958 553 
Q 319 1197 319 2328 
Q 319 3463 958 4106 
Q 1597 4750 2719 4750 
z
" transform="scale(0.015625)"/>
        <path id="DejaVuSans-Bold-49" d="M 588 4666 
L 1791 4666 
L 1791 0 
L 588 0 
L 588 4666 
z
" transform="scale(0.015625)"/>
       </defs>
       <use xlink:href="#DejaVuSans-Bold-53"/>
       <use xlink:href="#DejaVuSans-Bold-54" x="72.021484"/>
       <use xlink:href="#DejaVuSans-Bold-4f" x="140.234375"/>
       <use xlink:href="#DejaVuSans-Bold-49" x="225.244141"/>
      </g>
     </g>
    </g>
    <g id="xtick_2">
     <g id="line2d_4">
      <path d="M 283.3725 275.1732 
L 499.0657 275.1732 
" clip-path="url(#p4857693173)" style="fill: none; stroke: #d1d1d1; stroke-linecap: square"/>
     </g>
     <g id="text_2">
      <!-- N-MOS -->
      <g style="fill: #222222" transform="translate(490.161637 271.765762) scale(0.12 -0.12)">
       <defs>
        <path id="DejaVuSans-Bold-4e" d="M 588 4666 
L 1931 4666 
L 3628 1466 
L 3628 4666 
L 4769 4666 
L 4769 0 
L 3425 0 
L 1728 3200 
L 1728 0 
L 588 0 
L 588 4666 
z
" transform="scale(0.015625)"/>
        <path id="DejaVuSans-Bold-2d" d="M 347 2297 
L 2309 2297 
L 2309 1388 
L 347 1388 
L 347 2297 
z
" transform="scale(0.015625)"/>
        <path id="DejaVuSans-Bold-4d" d="M 588 4666 
L 2119 4666 
L 3181 2169 
L 4250 4666 
L 5778 4666 
L 5778 0 
L 4641 0 
L 4641 3413 
L 3566 897 
L 2803 897 
L 1728 3413 
L 1728 0 
L 588 0 
L 588 4666 
z
" transform="scale(0.015625)"/>
       </defs>
       <use xlink:href="#DejaVuSans-Bold-4e"/>
       <use xlink:href="#DejaVuSans-Bold-2d" x="83.691406"/>
       <use xlink:href="#DejaVuSans-Bold-4d" x="125.195312"/>
       <use xlink:href="#DejaVuSans-Bold-4f" x="224.707031"/>
       <use xlink:href="#DejaVuSans-Bold-53" x="309.716797"/>
      </g>
      <!-- (norm) -->
      <g style="fill: #222222" transform="translate(489.97695 285.203137) scale(0.12 -0.12)">
       <defs>
        <path id="DejaVuSans-Bold-28" d="M 2413 -844 
L 1484 -844 
Q 1006 -72 778 623 
Q 550 1319 550 2003 
Q 550 2688 779 3389 
Q 1009 4091 1484 4856 
L 2413 4856 
Q 2013 4116 1813 3408 
Q 1613 2700 1613 2009 
Q 1613 1319 1811 609 
Q 2009 -100 2413 -844 
z
" transform="scale(0.015625)"/>
        <path id="DejaVuSans-Bold-6e" d="M 4056 2131 
L 4056 0 
L 2931 0 
L 2931 347 
L 2931 1631 
Q 2931 2084 2911 2256 
Q 2891 2428 2841 2509 
Q 2775 2619 2662 2680 
Q 2550 2741 2406 2741 
Q 2056 2741 1856 2470 
Q 1656 2200 1656 1722 
L 1656 0 
L 538 0 
L 538 3500 
L 1656 3500 
L 1656 2988 
Q 1909 3294 2193 3439 
Q 2478 3584 2822 3584 
Q 3428 3584 3742 3212 
Q 4056 2841 4056 2131 
z
" transform="scale(0.015625)"/>
        <path id="DejaVuSans-Bold-6f" d="M 2203 2784 
Q 1831 2784 1636 2517 
Q 1441 2250 1441 1747 
Q 1441 1244 1636 976 
Q 1831 709 2203 709 
Q 2569 709 2762 976 
Q 2956 1244 2956 1747 
Q 2956 2250 2762 2517 
Q 2569 2784 2203 2784 
z
M 2203 3584 
Q 3106 3584 3614 3096 
Q 4122 2609 4122 1747 
Q 4122 884 3614 396 
Q 3106 -91 2203 -91 
Q 1297 -91 786 396 
Q 275 884 275 1747 
Q 275 2609 786 3096 
Q 1297 3584 2203 3584 
z
" transform="scale(0.015625)"/>
        <path id="DejaVuSans-Bold-72" d="M 3138 2547 
Q 2991 2616 2845 2648 
Q 2700 2681 2553 2681 
Q 2122 2681 1889 2404 
Q 1656 2128 1656 1613 
L 1656 0 
L 538 0 
L 538 3500 
L 1656 3500 
L 1656 2925 
Q 1872 3269 2151 3426 
Q 2431 3584 2822 3584 
Q 2878 3584 2943 3579 
Q 3009 3575 3134 3559 
L 3138 2547 
z
" transform="scale(0.015625)"/>
        <path id="DejaVuSans-Bold-6d" d="M 3781 2919 
Q 3994 3244 4286 3414 
Q 4578 3584 4928 3584 
Q 5531 3584 5847 3212 
Q 6163 2841 6163 2131 
L 6163 0 
L 5038 0 
L 5038 1825 
Q 5041 1866 5042 1909 
Q 5044 1953 5044 2034 
Q 5044 2406 4934 2573 
Q 4825 2741 4581 2741 
Q 4263 2741 4089 2478 
Q 3916 2216 3909 1719 
L 3909 0 
L 2784 0 
L 2784 1825 
Q 2784 2406 2684 2573 
Q 2584 2741 2328 2741 
Q 2006 2741 1831 2477 
Q 1656 2213 1656 1722 
L 1656 0 
L 531 0 
L 531 3500 
L 1656 3500 
L 1656 2988 
Q 1863 3284 2130 3434 
Q 2397 3584 2719 3584 
Q 3081 3584 3359 3409 
Q 3638 3234 3781 2919 
z
" transform="scale(0.015625)"/>
        <path id="DejaVuSans-Bold-29" d="M 513 -844 
Q 913 -100 1113 609 
Q 1313 1319 1313 2009 
Q 1313 2700 1113 3408 
Q 913 4116 513 4856 
L 1441 4856 
Q 1916 4091 2145 3389 
Q 2375 2688 2375 2003 
Q 2375 1319 2147 623 
Q 1919 -72 1441 -844 
L 513 -844 
z
" transform="scale(0.015625)"/>
       </defs>
       <use xlink:href="#DejaVuSans-Bold-28"/>
       <use xlink:href="#DejaVuSans-Bold-6e" x="45.703125"/>
       <use xlink:href="#DejaVuSans-Bold-6f" x="116.894531"/>
       <use xlink:href="#DejaVuSans-Bold-72" x="185.595703"/>
       <use xlink:href="#DejaVuSans-Bold-6d" x="234.912109"/>
       <use xlink:href="#DejaVuSans-Bold-29" x="339.111328"/>
      </g>
     </g>
    </g>
    <g id="xtick_3">
     <g id="line2d_5">
      <path d="M 283.3725 275.1732 
L 283.3725 490.8664 
" clip-path="url(#p4857693173)" style="fill: none; stroke: #d1d1d1; stroke-linecap: square"/>
     </g>
     <g id="text_3">
      <!-- SBS -->
      <g style="fill: #222222" transform="translate(270.1575 508.17765) scale(0.12 -0.12)">
       <defs>
        <path id="DejaVuSans-Bold-42" d="M 2456 2859 
Q 2741 2859 2887 2984 
Q 3034 3109 3034 3353 
Q 3034 3594 2887 3720 
Q 2741 3847 2456 3847 
L 1791 3847 
L 1791 2859 
L 2456 2859 
z
M 2497 819 
Q 2859 819 3042 972 
Q 3225 1125 3225 1434 
Q 3225 1738 3044 1889 
Q 2863 2041 2497 2041 
L 1791 2041 
L 1791 819 
L 2497 819 
z
M 3616 2497 
Q 4003 2384 4215 2081 
Q 4428 1778 4428 1338 
Q 4428 663 3972 331 
Q 3516 0 2584 0 
L 588 0 
L 588 4666 
L 2394 4666 
Q 3366 4666 3802 4372 
Q 4238 4078 4238 3431 
Q 4238 3091 4078 2852 
Q 3919 2613 3616 2497 
z
" transform="scale(0.015625)"/>
       </defs>
       <use xlink:href="#DejaVuSans-Bold-53"/>
       <use xlink:href="#DejaVuSans-Bold-42" x="72.021484"/>
       <use xlink:href="#DejaVuSans-Bold-53" x="148.242188"/>
      </g>
     </g>
    </g>
    <g id="xtick_4">
     <g id="line2d_6">
      <path d="M 283.3725 275.1732 
L 67.6793 275.1732 
" clip-path="url(#p4857693173)" style="fill: none; stroke: #d1d1d1; stroke-linecap: square"/>
     </g>
     <g id="text_4">
      <!-- COS -->
      <g style="fill: #222222" transform="translate(39.853988 278.48445) scale(0.12 -0.12)">
       <defs>
        <path id="DejaVuSans-Bold-43" d="M 4288 256 
Q 3956 84 3597 -3 
Q 3238 -91 2847 -91 
Q 1681 -91 1000 561 
Q 319 1213 319 2328 
Q 319 3447 1000 4098 
Q 1681 4750 2847 4750 
Q 3238 4750 3597 4662 
Q 3956 4575 4288 4403 
L 4288 3438 
Q 3953 3666 3628 3772 
Q 3303 3878 2944 3878 
Q 2300 3878 1931 3465 
Q 1563 3053 1563 2328 
Q 1563 1606 1931 1193 
Q 2300 781 2944 781 
Q 3303 781 3628 887 
Q 3953 994 4288 1222 
L 4288 256 
z
" transform="scale(0.015625)"/>
       </defs>
       <use xlink:href="#DejaVuSans-Bold-43"/>
       <use xlink:href="#DejaVuSans-Bold-4f" x="73.388672"/>
       <use xlink:href="#DejaVuSans-Bold-53" x="158.398438"/>
      </g>
     </g>
    </g>
   </g>
   <g id="matplotlib.axis_2">
    <g id="ytick_1">
     <g id="line2d_7">
      <path d="M 283.3725 234.088781 
C 288.767656 234.088781 294.110352 235.151509 299.094826 237.216146 
C 304.079301 239.280783 308.60862 242.307177 312.423571 246.122129 
C 316.238523 249.93708 319.264917 254.466399 321.329554 259.450874 
C 323.394191 264.435348 324.456919 269.778044 324.456919 275.1732 
C 324.456919 280.568356 323.394191 285.911052 321.329554 290.895526 
C 319.264917 295.880001 316.238523 300.40932 312.423571 304.224271 
C 308.60862 308.039223 304.079301 311.065617 299.094826 313.130254 
C 294.110352 315.194891 288.767656 316.257619 283.3725 316.257619 
C 277.977344 316.257619 272.634648 315.194891 267.650174 313.130254 
C 262.665699 311.065617 258.13638 308.039223 254.321429 304.224271 
C 250.506477 300.40932 247.480083 295.880001 245.415446 290.895526 
C 243.350809 285.911052 242.288081 280.568356 242.288081 275.1732 
C 242.288081 269.778044 243.350809 264.435348 245.415446 259.450874 
C 247.480083 254.466399 250.506477 249.93708 254.321429 246.122129 
C 258.13638 242.307177 262.665699 239.280783 267.650174 237.216146 
C 272.634648 235.151509 277.977344 234.088781 283.3725 234.088781 
" clip-path="url(#p4857693173)" style="fill: none; stroke-dasharray: 2.96,1.28; stroke-dashoffset: 0; stroke: #d1d1d1; stroke-width: 0.8"/>
     </g>
     <g id="text_5">
      <!-- 0.2 -->
      <g style="fill: #888888" transform="translate(283.3725 232.009093) scale(0.1 -0.1)">
       <defs>
        <path id="DejaVuSans-Bold-30" d="M 2944 2338 
Q 2944 3213 2780 3570 
Q 2616 3928 2228 3928 
Q 1841 3928 1675 3570 
Q 1509 3213 1509 2338 
Q 1509 1453 1675 1090 
Q 1841 728 2228 728 
Q 2613 728 2778 1090 
Q 2944 1453 2944 2338 
z
M 4147 2328 
Q 4147 1169 3647 539 
Q 3147 -91 2228 -91 
Q 1306 -91 806 539 
Q 306 1169 306 2328 
Q 306 3491 806 4120 
Q 1306 4750 2228 4750 
Q 3147 4750 3647 4120 
Q 4147 3491 4147 2328 
z
" transform="scale(0.015625)"/>
        <path id="DejaVuSans-Bold-2e" d="M 653 1209 
L 1778 1209 
L 1778 0 
L 653 0 
L 653 1209 
z
" transform="scale(0.015625)"/>
        <path id="DejaVuSans-Bold-32" d="M 1844 884 
L 3897 884 
L 3897 0 
L 506 0 
L 506 884 
L 2209 2388 
Q 2438 2594 2547 2791 
Q 2656 2988 2656 3200 
Q 2656 3528 2436 3728 
Q 2216 3928 1850 3928 
Q 1569 3928 1234 3808 
Q 900 3688 519 3450 
L 519 4475 
Q 925 4609 1322 4679 
Q 1719 4750 2100 4750 
Q 2938 4750 3402 4381 
Q 3866 4013 3866 3353 
Q 3866 2972 3669 2642 
Q 3472 2313 2841 1759 
L 1844 884 
z
" transform="scale(0.015625)"/>
       </defs>
       <use xlink:href="#DejaVuSans-Bold-30"/>
       <use xlink:href="#DejaVuSans-Bold-2e" x="69.580078"/>
       <use xlink:href="#DejaVuSans-Bold-32" x="107.568359"/>
      </g>
     </g>
    </g>
    <g id="ytick_2">
     <g id="line2d_8">
      <path d="M 283.3725 193.004362 
C 294.162813 193.004362 304.848204 195.129818 314.817153 199.259092 
C 324.786102 203.388366 333.844739 209.441154 341.474643 217.071057 
C 349.104546 224.700961 355.157334 233.759598 359.286608 243.728547 
C 363.415882 253.697496 365.541338 264.382887 365.541338 275.1732 
C 365.541338 285.963513 363.415882 296.648904 359.286608 306.617853 
C 355.157334 316.586802 349.104546 325.645439 341.474643 333.275343 
C 333.844739 340.905246 324.786102 346.958034 314.817153 351.087308 
C 304.848204 355.216582 294.162813 357.342038 283.3725 357.342038 
C 272.582187 357.342038 261.896796 355.216582 251.927847 351.087308 
C 241.958898 346.958034 232.900261 340.905246 225.270357 333.275343 
C 217.640454 325.645439 211.587666 316.586802 207.458392 306.617853 
C 203.329118 296.648904 201.203662 285.963513 201.203662 275.1732 
C 201.203662 264.382887 203.329118 253.697496 207.458392 243.728547 
C 211.587666 233.759598 217.640454 224.700961 225.270357 217.071057 
C 232.900261 209.441154 241.958898 203.388366 251.927847 199.259092 
C 261.896796 195.129818 272.582187 193.004362 283.3725 193.004362 
" clip-path="url(#p4857693173)" style="fill: none; stroke-dasharray: 2.96,1.28; stroke-dashoffset: 0; stroke: #d1d1d1; stroke-width: 0.8"/>
     </g>
     <g id="text_6">
      <!-- 0.4 -->
      <g style="fill: #888888" transform="translate(283.3725 190.924674) scale(0.1 -0.1)">
       <defs>
        <path id="DejaVuSans-Bold-34" d="M 2356 3675 
L 1038 1722 
L 2356 1722 
L 2356 3675 
z
M 2156 4666 
L 3494 4666 
L 3494 1722 
L 4159 1722 
L 4159 850 
L 3494 850 
L 3494 0 
L 2356 0 
L 2356 850 
L 288 850 
L 288 1881 
L 2156 4666 
z
" transform="scale(0.015625)"/>
       </defs>
       <use xlink:href="#DejaVuSans-Bold-30"/>
       <use xlink:href="#DejaVuSans-Bold-2e" x="69.580078"/>
       <use xlink:href="#DejaVuSans-Bold-34" x="107.568359"/>
      </g>
     </g>
    </g>
    <g id="ytick_3">
     <g id="line2d_9">
      <path d="M 283.3725 151.919943 
C 299.557969 151.919943 315.586056 155.108127 330.539479 161.302038 
C 345.492903 167.495949 359.080859 176.575131 370.525714 188.019986 
C 381.970569 199.464841 391.049751 213.052797 397.243662 228.006221 
C 403.437573 242.959644 406.625757 258.987731 406.625757 275.1732 
C 406.625757 291.358669 403.437573 307.386756 397.243662 322.340179 
C 391.049751 337.293603 381.970569 350.881559 370.525714 362.326414 
C 359.080859 373.771269 345.492903 382.850451 330.539479 389.044362 
C 315.586056 395.238273 299.557969 398.426457 283.3725 398.426457 
C 267.187031 398.426457 251.158944 395.238273 236.205521 389.044362 
C 221.252097 382.850451 207.664141 373.771269 196.219286 362.326414 
C 184.774431 350.881559 175.695249 337.293603 169.501338 322.340179 
C 163.307427 307.386756 160.119243 291.358669 160.119243 275.1732 
C 160.119243 258.987731 163.307427 242.959644 169.501338 228.006221 
C 175.695249 213.052797 184.774431 199.464841 196.219286 188.019986 
C 207.664141 176.575131 221.252097 167.495949 236.205521 161.302038 
C 251.158944 155.108127 267.187031 151.919943 283.3725 151.919943 
" clip-path="url(#p4857693173)" style="fill: none; stroke-dasharray: 2.96,1.28; stroke-dashoffset: 0; stroke: #d1d1d1; stroke-width: 0.8"/>
     </g>
     <g id="text_7">
      <!-- 0.6 -->
      <g style="fill: #888888" transform="translate(283.3725 149.840255) scale(0.1 -0.1)">
       <defs>
        <path id="DejaVuSans-Bold-36" d="M 2316 2303 
Q 2000 2303 1842 2098 
Q 1684 1894 1684 1484 
Q 1684 1075 1842 870 
Q 2000 666 2316 666 
Q 2634 666 2792 870 
Q 2950 1075 2950 1484 
Q 2950 1894 2792 2098 
Q 2634 2303 2316 2303 
z
M 3803 4544 
L 3803 3681 
Q 3506 3822 3243 3889 
Q 2981 3956 2731 3956 
Q 2194 3956 1894 3657 
Q 1594 3359 1544 2772 
Q 1750 2925 1990 3001 
Q 2231 3078 2516 3078 
Q 3231 3078 3670 2659 
Q 4109 2241 4109 1563 
Q 4109 813 3618 361 
Q 3128 -91 2303 -91 
Q 1394 -91 895 523 
Q 397 1138 397 2266 
Q 397 3422 980 4083 
Q 1563 4744 2578 4744 
Q 2900 4744 3203 4694 
Q 3506 4644 3803 4544 
z
" transform="scale(0.015625)"/>
       </defs>
       <use xlink:href="#DejaVuSans-Bold-30"/>
       <use xlink:href="#DejaVuSans-Bold-2e" x="69.580078"/>
       <use xlink:href="#DejaVuSans-Bold-36" x="107.568359"/>
      </g>
     </g>
    </g>
    <g id="ytick_4">
     <g id="line2d_10">
      <path d="M 283.3725 110.835524 
C 304.953126 110.835524 326.323907 115.086437 346.261806 123.344985 
C 366.199705 131.603533 384.316978 143.709108 399.576785 158.968915 
C 414.836592 174.228722 426.942167 192.345995 435.200715 212.283894 
C 443.459263 232.221793 447.710176 253.592574 447.710176 275.1732 
C 447.710176 296.753826 443.459263 318.124607 435.200715 338.062506 
C 426.942167 358.000405 414.836592 376.117678 399.576785 391.377485 
C 384.316978 406.637292 366.199705 418.742867 346.261806 427.001415 
C 326.323907 435.259963 304.953126 439.510876 283.3725 439.510876 
C 261.791874 439.510876 240.421093 435.259963 220.483194 427.001415 
C 200.545295 418.742867 182.428022 406.637292 167.168215 391.377485 
C 151.908408 376.117678 139.802833 358.000405 131.544285 338.062506 
C 123.285737 318.124607 119.034824 296.753826 119.034824 275.1732 
C 119.034824 253.592574 123.285737 232.221793 131.544285 212.283894 
C 139.802833 192.345995 151.908408 174.228722 167.168215 158.968915 
C 182.428022 143.709108 200.545295 131.603533 220.483194 123.344985 
C 240.421093 115.086437 261.791874 110.835524 283.3725 110.835524 
" clip-path="url(#p4857693173)" style="fill: none; stroke-dasharray: 2.96,1.28; stroke-dashoffset: 0; stroke: #d1d1d1; stroke-width: 0.8"/>
     </g>
     <g id="text_8">
      <!-- 0.8 -->
      <g style="fill: #888888" transform="translate(283.3725 108.755836) scale(0.1 -0.1)">
       <defs>
        <path id="DejaVuSans-Bold-38" d="M 2228 2088 
Q 1891 2088 1709 1903 
Q 1528 1719 1528 1375 
Q 1528 1031 1709 848 
Q 1891 666 2228 666 
Q 2563 666 2741 848 
Q 2919 1031 2919 1375 
Q 2919 1722 2741 1905 
Q 2563 2088 2228 2088 
z
M 1350 2484 
Q 925 2613 709 2878 
Q 494 3144 494 3541 
Q 494 4131 934 4440 
Q 1375 4750 2228 4750 
Q 3075 4750 3515 4442 
Q 3956 4134 3956 3541 
Q 3956 3144 3739 2878 
Q 3522 2613 3097 2484 
Q 3572 2353 3814 2058 
Q 4056 1763 4056 1313 
Q 4056 619 3595 264 
Q 3134 -91 2228 -91 
Q 1319 -91 855 264 
Q 391 619 391 1313 
Q 391 1763 633 2058 
Q 875 2353 1350 2484 
z
M 1631 3419 
Q 1631 3141 1786 2991 
Q 1941 2841 2228 2841 
Q 2509 2841 2662 2991 
Q 2816 3141 2816 3419 
Q 2816 3697 2662 3845 
Q 2509 3994 2228 3994 
Q 1941 3994 1786 3844 
Q 1631 3694 1631 3419 
z
" transform="scale(0.015625)"/>
       </defs>
       <use xlink:href="#DejaVuSans-Bold-30"/>
       <use xlink:href="#DejaVuSans-Bold-2e" x="69.580078"/>
       <use xlink:href="#DejaVuSans-Bold-38" x="107.568359"/>
      </g>
     </g>
    </g>
    <g id="ytick_5">
     <g id="line2d_11">
      <path d="M 283.3725 69.751105 
C 310.348282 69.751105 337.061759 75.064746 361.984132 85.387931 
C 386.906506 95.711116 409.553098 110.843085 428.627857 129.917843 
C 447.702615 148.992602 462.834584 171.639194 473.157769 196.561568 
C 483.480954 221.483941 488.794595 248.197418 488.794595 275.1732 
C 488.794595 302.148982 483.480954 328.862459 473.157769 353.784832 
C 462.834584 378.707206 447.702615 401.353798 428.627857 420.428557 
C 409.553098 439.503315 386.906506 454.635284 361.984132 464.958469 
C 337.061759 475.281654 310.348282 480.595295 283.3725 480.595295 
C 256.396718 480.595295 229.683241 475.281654 204.760868 464.958469 
C 179.838494 454.635284 157.191902 439.503315 138.117143 420.428557 
C 119.042385 401.353798 103.910416 378.707206 93.587231 353.784832 
C 83.264046 328.862459 77.950405 302.148982 77.950405 275.1732 
C 77.950405 248.197418 83.264046 221.483941 93.587231 196.561568 
C 103.910416 171.639194 119.042385 148.992602 138.117143 129.917843 
C 157.191902 110.843085 179.838494 95.711116 204.760868 85.387931 
C 229.683241 75.064746 256.396718 69.751105 283.3725 69.751105 
" clip-path="url(#p4857693173)" style="fill: none; stroke-dasharray: 2.96,1.28; stroke-dashoffset: 0; stroke: #d1d1d1; stroke-width: 0.8"/>
     </g>
     <g id="text_9">
      <!-- 1.0 -->
      <g style="fill: #888888" transform="translate(283.3725 67.671417) scale(0.1 -0.1)">
       <defs>
        <path id="DejaVuSans-Bold-31" d="M 750 831 
L 1813 831 
L 1813 3847 
L 722 3622 
L 722 4441 
L 1806 4666 
L 2950 4666 
L 2950 831 
L 4013 831 
L 4013 0 
L 750 0 
L 750 831 
z
" transform="scale(0.015625)"/>
       </defs>
       <use xlink:href="#DejaVuSans-Bold-31"/>
       <use xlink:href="#DejaVuSans-Bold-2e" x="69.580078"/>
       <use xlink:href="#DejaVuSans-Bold-30" x="107.568359"/>
      </g>
     </g>
    </g>
   </g>
   <g id="line2d_12">
    <path d="M 283.3725 172.462152 
L 408.269134 275.1732 
L 283.3725 390.209573 
L 135.468591 275.1732 
L 283.3725 172.462152 
" clip-path="url(#p4857693173)" style="fill: none; stroke: #2ecc71; stroke-opacity: 0.7; stroke-width: 2; stroke-linecap: square"/>
   </g>
   <g id="line2d_13">
    <path d="M 283.3725 69.751105 
L 296.401174 70.164686 
L 309.377387 71.403764 
L 322.248887 73.46335 
L 334.963846 76.33515 
L 347.471064 80.0076 
L 359.72018 84.465914 
L 371.661871 89.692139 
L 383.248052 95.66523 
L 394.432069 102.361137 
L 405.168889 109.752896 
L 415.415278 117.810745 
L 425.129976 126.502237 
L 434.273868 135.792375 
L 442.810133 145.64375 
L 450.704399 156.016694 
L 457.924878 166.86944 
L 464.442497 178.158286 
L 470.23101 189.837778 
L 475.267111 201.860885 
L 479.530519 214.179194 
L 483.004069 226.743105 
L 485.673772 239.502028 
L 487.52888 252.404585 
L 488.561922 265.398823 
L 488.768738 278.43242 
L 488.148497 291.452892 
L 486.703695 304.407812 
L 484.440149 317.245015 
L 481.366976 329.912809 
L 477.496548 342.360186 
L 472.844452 354.537025 
L 467.429418 366.394294 
L 461.273253 377.884248 
L 454.400744 388.96062 
L 446.839565 399.578811 
L 438.620161 409.696064 
L 429.77563 419.271641 
L 420.341585 428.266985 
L 410.356014 436.645874 
L 399.859125 444.374569 
L 388.893186 451.42195 
L 377.502352 457.75964 
L 365.732491 463.362119 
L 353.630994 468.206827 
L 341.246592 472.274257 
L 328.629151 475.548031 
L 315.829478 478.014965 
L 302.899112 479.665128 
L 289.890119 480.491874 
L 276.854881 480.491874 
L 263.845888 479.665128 
L 250.915522 478.014965 
L 238.115849 475.548031 
L 225.498408 472.274257 
L 213.114006 468.206827 
L 201.012509 463.362119 
L 189.242648 457.75964 
L 177.851814 451.42195 
L 166.885875 444.374569 
L 156.388986 436.645874 
L 146.403415 428.266985 
L 136.96937 419.271641 
L 128.124839 409.696064 
L 119.905435 399.578811 
L 112.344256 388.96062 
L 105.471747 377.884248 
L 99.315582 366.394294 
L 93.900548 354.537025 
L 89.248452 342.360186 
L 85.378024 329.912809 
L 82.304851 317.245015 
L 80.041305 304.407812 
L 78.596503 291.452892 
L 77.976262 278.43242 
L 78.183078 265.398823 
L 79.21612 252.404585 
L 81.071228 239.502028 
L 83.740931 226.743105 
L 87.214481 214.179194 
L 91.477889 201.860885 
L 96.51399 189.837778 
L 102.302503 178.158286 
L 108.820122 166.86944 
L 116.040601 156.016694 
L 123.934867 145.64375 
L 132.471132 135.792375 
L 141.615024 126.502237 
L 151.329722 117.810745 
L 161.576111 109.752896 
L 172.312931 102.361137 
L 183.496948 95.66523 
L 195.083129 89.692139 
L 207.02482 84.465914 
L 219.273936 80.0076 
L 231.781154 76.33515 
L 244.496113 73.46335 
L 257.367613 71.403764 
L 270.343826 70.164686 
L 283.3725 69.751105 
" clip-path="url(#p4857693173)" style="fill: none; stroke: #555555; stroke-opacity: 0.5; stroke-width: 1.2; stroke-linecap: square"/>
   </g>
   <g id="text_10">
    <!-- Ablation Study: Metrics Comparison -->
    <g style="fill: #1a1a1a" transform="translate(100.602188 24.48) scale(0.18 -0.18)">
     <defs>
      <path id="DejaVuSans-Bold-41" d="M 3419 850 
L 1538 850 
L 1241 0 
L 31 0 
L 1759 4666 
L 3194 4666 
L 4922 0 
L 3713 0 
L 3419 850 
z
M 1838 1716 
L 3116 1716 
L 2478 3572 
L 1838 1716 
z
" transform="scale(0.015625)"/>
      <path id="DejaVuSans-Bold-62" d="M 2400 722 
Q 2759 722 2948 984 
Q 3138 1247 3138 1747 
Q 3138 2247 2948 2509 
Q 2759 2772 2400 2772 
Q 2041 2772 1848 2508 
Q 1656 2244 1656 1747 
Q 1656 1250 1848 986 
Q 2041 722 2400 722 
z
M 1656 2988 
Q 1888 3294 2169 3439 
Q 2450 3584 2816 3584 
Q 3463 3584 3878 3070 
Q 4294 2556 4294 1747 
Q 4294 938 3878 423 
Q 3463 -91 2816 -91 
Q 2450 -91 2169 54 
Q 1888 200 1656 506 
L 1656 0 
L 538 0 
L 538 4863 
L 1656 4863 
L 1656 2988 
z
" transform="scale(0.015625)"/>
      <path id="DejaVuSans-Bold-6c" d="M 538 4863 
L 1656 4863 
L 1656 0 
L 538 0 
L 538 4863 
z
" transform="scale(0.015625)"/>
      <path id="DejaVuSans-Bold-61" d="M 2106 1575 
Q 1756 1575 1579 1456 
Q 1403 1338 1403 1106 
Q 1403 894 1545 773 
Q 1688 653 1941 653 
Q 2256 653 2472 879 
Q 2688 1106 2688 1447 
L 2688 1575 
L 2106 1575 
z
M 3816 1997 
L 3816 0 
L 2688 0 
L 2688 519 
Q 2463 200 2181 54 
Q 1900 -91 1497 -91 
Q 953 -91 614 226 
Q 275 544 275 1050 
Q 275 1666 698 1953 
Q 1122 2241 2028 2241 
L 2688 2241 
L 2688 2328 
Q 2688 2594 2478 2717 
Q 2269 2841 1825 2841 
Q 1466 2841 1156 2769 
Q 847 2697 581 2553 
L 581 3406 
Q 941 3494 1303 3539 
Q 1666 3584 2028 3584 
Q 2975 3584 3395 3211 
Q 3816 2838 3816 1997 
z
" transform="scale(0.015625)"/>
      <path id="DejaVuSans-Bold-74" d="M 1759 4494 
L 1759 3500 
L 2913 3500 
L 2913 2700 
L 1759 2700 
L 1759 1216 
Q 1759 972 1856 886 
Q 1953 800 2241 800 
L 2816 800 
L 2816 0 
L 1856 0 
Q 1194 0 917 276 
Q 641 553 641 1216 
L 641 2700 
L 84 2700 
L 84 3500 
L 641 3500 
L 641 4494 
L 1759 4494 
z
" transform="scale(0.015625)"/>
      <path id="DejaVuSans-Bold-69" d="M 538 3500 
L 1656 3500 
L 1656 0 
L 538 0 
L 538 3500 
z
M 538 4863 
L 1656 4863 
L 1656 3950 
L 538 3950 
L 538 4863 
z
" transform="scale(0.015625)"/>
      <path id="DejaVuSans-Bold-20" transform="scale(0.015625)"/>
      <path id="DejaVuSans-Bold-75" d="M 500 1363 
L 500 3500 
L 1625 3500 
L 1625 3150 
Q 1625 2866 1622 2436 
Q 1619 2006 1619 1863 
Q 1619 1441 1641 1255 
Q 1663 1069 1716 984 
Q 1784 875 1895 815 
Q 2006 756 2150 756 
Q 2500 756 2700 1025 
Q 2900 1294 2900 1772 
L 2900 3500 
L 4019 3500 
L 4019 0 
L 2900 0 
L 2900 506 
Q 2647 200 2364 54 
Q 2081 -91 1741 -91 
Q 1134 -91 817 281 
Q 500 653 500 1363 
z
" transform="scale(0.015625)"/>
      <path id="DejaVuSans-Bold-64" d="M 2919 2988 
L 2919 4863 
L 4044 4863 
L 4044 0 
L 2919 0 
L 2919 506 
Q 2688 197 2409 53 
Q 2131 -91 1766 -91 
Q 1119 -91 703 423 
Q 288 938 288 1747 
Q 288 2556 703 3070 
Q 1119 3584 1766 3584 
Q 2128 3584 2408 3439 
Q 2688 3294 2919 2988 
z
M 2181 722 
Q 2541 722 2730 984 
Q 2919 1247 2919 1747 
Q 2919 2247 2730 2509 
Q 2541 2772 2181 2772 
Q 1825 2772 1636 2509 
Q 1447 2247 1447 1747 
Q 1447 1247 1636 984 
Q 1825 722 2181 722 
z
" transform="scale(0.015625)"/>
      <path id="DejaVuSans-Bold-79" d="M 78 3500 
L 1197 3500 
L 2138 1125 
L 2938 3500 
L 4056 3500 
L 2584 -331 
Q 2363 -916 2067 -1148 
Q 1772 -1381 1288 -1381 
L 641 -1381 
L 641 -647 
L 991 -647 
Q 1275 -647 1404 -556 
Q 1534 -466 1606 -231 
L 1638 -134 
L 78 3500 
z
" transform="scale(0.015625)"/>
      <path id="DejaVuSans-Bold-3a" d="M 716 3500 
L 1844 3500 
L 1844 2291 
L 716 2291 
L 716 3500 
z
M 716 1209 
L 1844 1209 
L 1844 0 
L 716 0 
L 716 1209 
z
" transform="scale(0.015625)"/>
      <path id="DejaVuSans-Bold-65" d="M 4031 1759 
L 4031 1441 
L 1416 1441 
Q 1456 1047 1700 850 
Q 1944 653 2381 653 
Q 2734 653 3104 758 
Q 3475 863 3866 1075 
L 3866 213 
Q 3469 63 3072 -14 
Q 2675 -91 2278 -91 
Q 1328 -91 801 392 
Q 275 875 275 1747 
Q 275 2603 792 3093 
Q 1309 3584 2216 3584 
Q 3041 3584 3536 3087 
Q 4031 2591 4031 1759 
z
M 2881 2131 
Q 2881 2450 2695 2645 
Q 2509 2841 2209 2841 
Q 1884 2841 1681 2658 
Q 1478 2475 1428 2131 
L 2881 2131 
z
" transform="scale(0.015625)"/>
      <path id="DejaVuSans-Bold-63" d="M 3366 3391 
L 3366 2478 
Q 3138 2634 2908 2709 
Q 2678 2784 2431 2784 
Q 1963 2784 1702 2511 
Q 1441 2238 1441 1747 
Q 1441 1256 1702 982 
Q 1963 709 2431 709 
Q 2694 709 2930 787 
Q 3166 866 3366 1019 
L 3366 103 
Q 3103 6 2833 -42 
Q 2563 -91 2291 -91 
Q 1344 -91 809 395 
Q 275 881 275 1747 
Q 275 2613 809 3098 
Q 1344 3584 2291 3584 
Q 2566 3584 2833 3536 
Q 3100 3488 3366 3391 
z
" transform="scale(0.015625)"/>
      <path id="DejaVuSans-Bold-73" d="M 3272 3391 
L 3272 2541 
Q 2913 2691 2578 2766 
Q 2244 2841 1947 2841 
Q 1628 2841 1473 2761 
Q 1319 2681 1319 2516 
Q 1319 2381 1436 2309 
Q 1553 2238 1856 2203 
L 2053 2175 
Q 2913 2066 3209 1816 
Q 3506 1566 3506 1031 
Q 3506 472 3093 190 
Q 2681 -91 1863 -91 
Q 1516 -91 1145 -36 
Q 775 19 384 128 
L 384 978 
Q 719 816 1070 734 
Q 1422 653 1784 653 
Q 2113 653 2278 743 
Q 2444 834 2444 1013 
Q 2444 1163 2330 1236 
Q 2216 1309 1875 1350 
L 1678 1375 
Q 931 1469 631 1722 
Q 331 1975 331 2491 
Q 331 3047 712 3315 
Q 1094 3584 1881 3584 
Q 2191 3584 2531 3537 
Q 2872 3491 3272 3391 
z
" transform="scale(0.015625)"/>
      <path id="DejaVuSans-Bold-70" d="M 1656 506 
L 1656 -1331 
L 538 -1331 
L 538 3500 
L 1656 3500 
L 1656 2988 
Q 1888 3294 2169 3439 
Q 2450 3584 2816 3584 
Q 3463 3584 3878 3070 
Q 4294 2556 4294 1747 
Q 4294 938 3878 423 
Q 3463 -91 2816 -91 
Q 2450 -91 2169 54 
Q 1888 200 1656 506 
z
M 2400 2772 
Q 2041 2772 1848 2508 
Q 1656 2244 1656 1747 
Q 1656 1250 1848 986 
Q 2041 722 2400 722 
Q 2759 722 2948 984 
Q 3138 1247 3138 1747 
Q 3138 2247 2948 2509 
Q 2759 2772 2400 2772 
z
" transform="scale(0.015625)"/>
     </defs>
     <use xlink:href="#DejaVuSans-Bold-41"/>
     <use xlink:href="#DejaVuSans-Bold-62" x="77.392578"/>
     <use xlink:href="#DejaVuSans-Bold-6c" x="148.974609"/>
     <use xlink:href="#DejaVuSans-Bold-61" x="183.251953"/>
     <use xlink:href="#DejaVuSans-Bold-74" x="250.732422"/>
     <use xlink:href="#DejaVuSans-Bold-69" x="298.535156"/>
     <use xlink:href="#DejaVuSans-Bold-6f" x="332.8125"/>
     <use xlink:href="#DejaVuSans-Bold-6e" x="401.513672"/>
     <use xlink:href="#DejaVuSans-Bold-20" x="472.705078"/>
     <use xlink:href="#DejaVuSans-Bold-53" x="507.519531"/>
     <use xlink:href="#DejaVuSans-Bold-74" x="579.541016"/>
     <use xlink:href="#DejaVuSans-Bold-75" x="627.34375"/>
     <use xlink:href="#DejaVuSans-Bold-64" x="698.535156"/>
     <use xlink:href="#DejaVuSans-Bold-79" x="770.117188"/>
     <use xlink:href="#DejaVuSans-Bold-3a" x="835.302734"/>
     <use xlink:href="#DejaVuSans-Bold-20" x="875.292969"/>
     <use xlink:href="#DejaVuSans-Bold-4d" x="910.107422"/>
     <use xlink:href="#DejaVuSans-Bold-65" x="1009.619141"/>
     <use xlink:href="#DejaVuSans-Bold-74" x="1077.441406"/>
     <use xlink:href="#DejaVuSans-Bold-72" x="1125.244141"/>
     <use xlink:href="#DejaVuSans-Bold-69" x="1174.560547"/>
     <use xlink:href="#DejaVuSans-Bold-63" x="1208.837891"/>
     <use xlink:href="#DejaVuSans-Bold-73" x="1268.115234"/>
     <use xlink:href="#DejaVuSans-Bold-20" x="1327.636719"/>
     <use xlink:href="#DejaVuSans-Bold-43" x="1362.451172"/>
     <use xlink:href="#DejaVuSans-Bold-6f" x="1435.839844"/>
     <use xlink:href="#DejaVuSans-Bold-6d" x="1504.541016"/>
     <use xlink:href="#DejaVuSans-Bold-70" x="1608.740234"/>
     <use xlink:href="#DejaVuSans-Bold-61" x="1680.322266"/>
     <use xlink:href="#DejaVuSans-Bold-72" x="1747.802734"/>
     <use xlink:href="#DejaVuSans-Bold-69" x="1797.119141"/>
     <use xlink:href="#DejaVuSans-Bold-73" x="1831.396484"/>
     <use xlink:href="#DejaVuSans-Bold-6f" x="1890.917969"/>
     <use xlink:href="#DejaVuSans-Bold-6e" x="1959.619141"/>
    </g>
   </g>
   <g id="legend_1">
    <g id="line2d_14">
     <path d="M 168.930391 536.332358 
L 179.930391 536.332358 
L 190.930391 536.332358 
" style="fill: none; stroke: #e74c3c; stroke-opacity: 0.7; stroke-width: 2; stroke-linecap: square"/>
    </g>
    <g id="text_11">
     <!-- Baseline -->
     <g transform="translate(199.730391 540.182358) scale(0.11 -0.11)">
      <defs>
       <path id="DejaVuSans-42" d="M 1259 2228 
L 1259 519 
L 2272 519 
Q 2781 519 3026 730 
Q 3272 941 3272 1375 
Q 3272 1813 3026 2020 
Q 2781 2228 2272 2228 
L 1259 2228 
z
M 1259 4147 
L 1259 2741 
L 2194 2741 
Q 2656 2741 2882 2914 
Q 3109 3088 3109 3444 
Q 3109 3797 2882 3972 
Q 2656 4147 2194 4147 
L 1259 4147 
z
M 628 4666 
L 2241 4666 
Q 2963 4666 3353 4366 
Q 3744 4066 3744 3513 
Q 3744 3084 3544 2831 
Q 3344 2578 2956 2516 
Q 3422 2416 3680 2098 
Q 3938 1781 3938 1306 
Q 3938 681 3513 340 
Q 3088 0 2303 0 
L 628 0 
L 628 4666 
z
" transform="scale(0.015625)"/>
       <path id="DejaVuSans-61" d="M 2194 1759 
Q 1497 1759 1228 1600 
Q 959 1441 959 1056 
Q 959 750 1161 570 
Q 1363 391 1709 391 
Q 2188 391 2477 730 
Q 2766 1069 2766 1631 
L 2766 1759 
L 2194 1759 
z
M 3341 1997 
L 3341 0 
L 2766 0 
L 2766 531 
Q 2569 213 2275 61 
Q 1981 -91 1556 -91 
Q 1019 -91 701 211 
Q 384 513 384 1019 
Q 384 1609 779 1909 
Q 1175 2209 1959 2209 
L 2766 2209 
L 2766 2266 
Q 2766 2663 2505 2880 
Q 2244 3097 1772 3097 
Q 1472 3097 1187 3025 
Q 903 2953 641 2809 
L 641 3341 
Q 956 3463 1253 3523 
Q 1550 3584 1831 3584 
Q 2591 3584 2966 3190 
Q 3341 2797 3341 1997 
z
" transform="scale(0.015625)"/>
       <path id="DejaVuSans-73" d="M 2834 3397 
L 2834 2853 
Q 2591 2978 2328 3040 
Q 2066 3103 1784 3103 
Q 1356 3103 1142 2972 
Q 928 2841 928 2578 
Q 928 2378 1081 2264 
Q 1234 2150 1697 2047 
L 1894 2003 
Q 2506 1872 2764 1633 
Q 3022 1394 3022 966 
Q 3022 478 2636 193 
Q 2250 -91 1575 -91 
Q 1294 -91 989 -36 
Q 684 19 347 128 
L 347 722 
Q 666 556 975 473 
Q 1284 391 1588 391 
Q 1994 391 2212 530 
Q 2431 669 2431 922 
Q 2431 1156 2273 1281 
Q 2116 1406 1581 1522 
L 1381 1569 
Q 847 1681 609 1914 
Q 372 2147 372 2553 
Q 372 3047 722 3315 
Q 1072 3584 1716 3584 
Q 2034 3584 2315 3537 
Q 2597 3491 2834 3397 
z
" transform="scale(0.015625)"/>
       <path id="DejaVuSans-65" d="M 3597 1894 
L 3597 1613 
L 953 1613 
Q 991 1019 1311 708 
Q 1631 397 2203 397 
Q 2534 397 2845 478 
Q 3156 559 3463 722 
L 3463 178 
Q 3153 47 2828 -22 
Q 2503 -91 2169 -91 
Q 1331 -91 842 396 
Q 353 884 353 1716 
Q 353 2575 817 3079 
Q 1281 3584 2069 3584 
Q 2775 3584 3186 3129 
Q 3597 2675 3597 1894 
z
M 3022 2063 
Q 3016 2534 2758 2815 
Q 2500 3097 2075 3097 
Q 1594 3097 1305 2825 
Q 1016 2553 972 2059 
L 3022 2063 
z
" transform="scale(0.015625)"/>
       <path id="DejaVuSans-6c" d="M 603 4863 
L 1178 4863 
L 1178 0 
L 603 0 
L 603 4863 
z
" transform="scale(0.015625)"/>
       <path id="DejaVuSans-69" d="M 603 3500 
L 1178 3500 
L 1178 0 
L 603 0 
L 603 3500 
z
M 603 4863 
L 1178 4863 
L 1178 4134 
L 603 4134 
L 603 4863 
z
" transform="scale(0.015625)"/>
       <path id="DejaVuSans-6e" d="M 3513 2113 
L 3513 0 
L 2938 0 
L 2938 2094 
Q 2938 2591 2744 2837 
Q 2550 3084 2163 3084 
Q 1697 3084 1428 2787 
Q 1159 2491 1159 1978 
L 1159 0 
L 581 0 
L 581 3500 
L 1159 3500 
L 1159 2956 
Q 1366 3272 1645 3428 
Q 1925 3584 2291 3584 
Q 2894 3584 3203 3211 
Q 3513 2838 3513 2113 
z
" transform="scale(0.015625)"/>
      </defs>
      <use xlink:href="#DejaVuSans-42"/>
      <use xlink:href="#DejaVuSans-61" x="68.603516"/>
      <use xlink:href="#DejaVuSans-73" x="129.882812"/>
      <use xlink:href="#DejaVuSans-65" x="181.982422"/>
      <use xlink:href="#DejaVuSans-6c" x="243.505859"/>
      <use xlink:href="#DejaVuSans-69" x="271.289062"/>
      <use xlink:href="#DejaVuSans-6e" x="299.072266"/>
      <use xlink:href="#DejaVuSans-65" x="362.451172"/>
     </g>
    </g>
    <g id="line2d_15">
     <path d="M 168.930391 552.478296 
L 179.930391 552.478296 
L 190.930391 552.478296 
" style="fill: none; stroke: #f1c40f; stroke-opacity: 0.7; stroke-width: 2; stroke-linecap: square"/>
    </g>
    <g id="text_12">
     <!-- Attributes (A) -->
     <g transform="translate(199.730391 556.328296) scale(0.11 -0.11)">
      <defs>
       <path id="DejaVuSans-41" d="M 2188 4044 
L 1331 1722 
L 3047 1722 
L 2188 4044 
z
M 1831 4666 
L 2547 4666 
L 4325 0 
L 3669 0 
L 3244 1197 
L 1141 1197 
L 716 0 
L 50 0 
L 1831 4666 
z
" transform="scale(0.015625)"/>
       <path id="DejaVuSans-74" d="M 1172 4494 
L 1172 3500 
L 2356 3500 
L 2356 3053 
L 1172 3053 
L 1172 1153 
Q 1172 725 1289 603 
Q 1406 481 1766 481 
L 2356 481 
L 2356 0 
L 1766 0 
Q 1100 0 847 248 
Q 594 497 594 1153 
L 594 3053 
L 172 3053 
L 172 3500 
L 594 3500 
L 594 4494 
L 1172 4494 
z
" transform="scale(0.015625)"/>
       <path id="DejaVuSans-72" d="M 2631 2963 
Q 2534 3019 2420 3045 
Q 2306 3072 2169 3072 
Q 1681 3072 1420 2755 
Q 1159 2438 1159 1844 
L 1159 0 
L 581 0 
L 581 3500 
L 1159 3500 
L 1159 2956 
Q 1341 3275 1631 3429 
Q 1922 3584 2338 3584 
Q 2397 3584 2469 3576 
Q 2541 3569 2628 3553 
L 2631 2963 
z
" transform="scale(0.015625)"/>
       <path id="DejaVuSans-62" d="M 3116 1747 
Q 3116 2381 2855 2742 
Q 2594 3103 2138 3103 
Q 1681 3103 1420 2742 
Q 1159 2381 1159 1747 
Q 1159 1113 1420 752 
Q 1681 391 2138 391 
Q 2594 391 2855 752 
Q 3116 1113 3116 1747 
z
M 1159 2969 
Q 1341 3281 1617 3432 
Q 1894 3584 2278 3584 
Q 2916 3584 3314 3078 
Q 3713 2572 3713 1747 
Q 3713 922 3314 415 
Q 2916 -91 2278 -91 
Q 1894 -91 1617 61 
Q 1341 213 1159 525 
L 1159 0 
L 581 0 
L 581 4863 
L 1159 4863 
L 1159 2969 
z
" transform="scale(0.015625)"/>
       <path id="DejaVuSans-75" d="M 544 1381 
L 544 3500 
L 1119 3500 
L 1119 1403 
Q 1119 906 1312 657 
Q 1506 409 1894 409 
Q 2359 409 2629 706 
Q 2900 1003 2900 1516 
L 2900 3500 
L 3475 3500 
L 3475 0 
L 2900 0 
L 2900 538 
Q 2691 219 2414 64 
Q 2138 -91 1772 -91 
Q 1169 -91 856 284 
Q 544 659 544 1381 
z
M 1991 3584 
L 1991 3584 
z
" transform="scale(0.015625)"/>
       <path id="DejaVuSans-20" transform="scale(0.015625)"/>
       <path id="DejaVuSans-28" d="M 1984 4856 
Q 1566 4138 1362 3434 
Q 1159 2731 1159 2009 
Q 1159 1288 1364 580 
Q 1569 -128 1984 -844 
L 1484 -844 
Q 1016 -109 783 600 
Q 550 1309 550 2009 
Q 550 2706 781 3412 
Q 1013 4119 1484 4856 
L 1984 4856 
z
" transform="scale(0.015625)"/>
       <path id="DejaVuSans-29" d="M 513 4856 
L 1013 4856 
Q 1481 4119 1714 3412 
Q 1947 2706 1947 2009 
Q 1947 1309 1714 600 
Q 1481 -109 1013 -844 
L 513 -844 
Q 928 -128 1133 580 
Q 1338 1288 1338 2009 
Q 1338 2731 1133 3434 
Q 928 4138 513 4856 
z
" transform="scale(0.015625)"/>
      </defs>
      <use xlink:href="#DejaVuSans-41"/>
      <use xlink:href="#DejaVuSans-74" x="66.658203"/>
      <use xlink:href="#DejaVuSans-74" x="105.867188"/>
      <use xlink:href="#DejaVuSans-72" x="145.076172"/>
      <use xlink:href="#DejaVuSans-69" x="186.189453"/>
      <use xlink:href="#DejaVuSans-62" x="213.972656"/>
      <use xlink:href="#DejaVuSans-75" x="277.449219"/>
      <use xlink:href="#DejaVuSans-74" x="340.828125"/>
      <use xlink:href="#DejaVuSans-65" x="380.037109"/>
      <use xlink:href="#DejaVuSans-73" x="441.560547"/>
      <use xlink:href="#DejaVuSans-20" x="493.660156"/>
      <use xlink:href="#DejaVuSans-28" x="525.447266"/>
      <use xlink:href="#DejaVuSans-41" x="564.460938"/>
      <use xlink:href="#DejaVuSans-29" x="632.869141"/>
     </g>
    </g>
    <g id="line2d_16">
     <path d="M 295.634922 536.332358 
L 306.634922 536.332358 
L 317.634922 536.332358 
" style="fill: none; stroke: #2ecc71; stroke-opacity: 0.7; stroke-width: 2; stroke-linecap: square"/>
    </g>
    <g id="text_13">
     <!-- Residual (R) -->
     <g transform="translate(326.434922 540.182358) scale(0.11 -0.11)">
      <defs>
       <path id="DejaVuSans-52" d="M 2841 2188 
Q 3044 2119 3236 1894 
Q 3428 1669 3622 1275 
L 4263 0 
L 3584 0 
L 2988 1197 
Q 2756 1666 2539 1819 
Q 2322 1972 1947 1972 
L 1259 1972 
L 1259 0 
L 628 0 
L 628 4666 
L 2053 4666 
Q 2853 4666 3247 4331 
Q 3641 3997 3641 3322 
Q 3641 2881 3436 2590 
Q 3231 2300 2841 2188 
z
M 1259 4147 
L 1259 2491 
L 2053 2491 
Q 2509 2491 2742 2702 
Q 2975 2913 2975 3322 
Q 2975 3731 2742 3939 
Q 2509 4147 2053 4147 
L 1259 4147 
z
" transform="scale(0.015625)"/>
       <path id="DejaVuSans-64" d="M 2906 2969 
L 2906 4863 
L 3481 4863 
L 3481 0 
L 2906 0 
L 2906 525 
Q 2725 213 2448 61 
Q 2172 -91 1784 -91 
Q 1150 -91 751 415 
Q 353 922 353 1747 
Q 353 2572 751 3078 
Q 1150 3584 1784 3584 
Q 2172 3584 2448 3432 
Q 2725 3281 2906 2969 
z
M 947 1747 
Q 947 1113 1208 752 
Q 1469 391 1925 391 
Q 2381 391 2643 752 
Q 2906 1113 2906 1747 
Q 2906 2381 2643 2742 
Q 2381 3103 1925 3103 
Q 1469 3103 1208 2742 
Q 947 2381 947 1747 
z
" transform="scale(0.015625)"/>
      </defs>
      <use xlink:href="#DejaVuSans-52"/>
      <use xlink:href="#DejaVuSans-65" x="64.982422"/>
      <use xlink:href="#DejaVuSans-73" x="126.505859"/>
      <use xlink:href="#DejaVuSans-69" x="178.605469"/>
      <use xlink:href="#DejaVuSans-64" x="206.388672"/>
      <use xlink:href="#DejaVuSans-75" x="269.865234"/>
      <use xlink:href="#DejaVuSans-61" x="333.244141"/>
      <use xlink:href="#DejaVuSans-6c" x="394.523438"/>
      <use xlink:href="#DejaVuSans-20" x="422.306641"/>
      <use xlink:href="#DejaVuSans-28" x="454.09375"/>
      <use xlink:href="#DejaVuSans-52" x="493.107422"/>
      <use xlink:href="#DejaVuSans-29" x="562.589844"/>
     </g>
    </g>
    <g id="line2d_17">
     <path d="M 295.634922 552.478296 
L 306.634922 552.478296 
L 317.634922 552.478296 
" style="fill: none; stroke: #00d4ff; stroke-width: 4; stroke-linecap: square"/>
    </g>
    <g id="text_14">
     <!-- RT-MAE (Full) -->
     <g transform="translate(326.434922 556.328296) scale(0.11 -0.11)">
      <defs>
       <path id="DejaVuSans-54" d="M -19 4666 
L 3928 4666 
L 3928 4134 
L 2272 4134 
L 2272 0 
L 1638 0 
L 1638 4134 
L -19 4134 
L -19 4666 
z
" transform="scale(0.015625)"/>
       <path id="DejaVuSans-2d" d="M 313 2009 
L 1997 2009 
L 1997 1497 
L 313 1497 
L 313 2009 
z
" transform="scale(0.015625)"/>
       <path id="DejaVuSans-4d" d="M 628 4666 
L 1569 4666 
L 2759 1491 
L 3956 4666 
L 4897 4666 
L 4897 0 
L 4281 0 
L 4281 4097 
L 3078 897 
L 2444 897 
L 1241 4097 
L 1241 0 
L 628 0 
L 628 4666 
z
" transform="scale(0.015625)"/>
       <path id="DejaVuSans-45" d="M 628 4666 
L 3578 4666 
L 3578 4134 
L 1259 4134 
L 1259 2753 
L 3481 2753 
L 3481 2222 
L 1259 2222 
L 1259 531 
L 3634 531 
L 3634 0 
L 628 0 
L 628 4666 
z
" transform="scale(0.015625)"/>
       <path id="DejaVuSans-46" d="M 628 4666 
L 3309 4666 
L 3309 4134 
L 1259 4134 
L 1259 2759 
L 3109 2759 
L 3109 2228 
L 1259 2228 
L 1259 0 
L 628 0 
L 628 4666 
z
" transform="scale(0.015625)"/>
      </defs>
      <use xlink:href="#DejaVuSans-52"/>
      <use xlink:href="#DejaVuSans-54" x="62.232422"/>
      <use xlink:href="#DejaVuSans-2d" x="114.191406"/>
      <use xlink:href="#DejaVuSans-4d" x="150.275391"/>
      <use xlink:href="#DejaVuSans-41" x="236.554688"/>
      <use xlink:href="#DejaVuSans-45" x="304.962891"/>
      <use xlink:href="#DejaVuSans-20" x="368.146484"/>
      <use xlink:href="#DejaVuSans-28" x="399.933594"/>
      <use xlink:href="#DejaVuSans-46" x="438.947266"/>
      <use xlink:href="#DejaVuSans-75" x="490.966797"/>
      <use xlink:href="#DejaVuSans-6c" x="554.345703"/>
      <use xlink:href="#DejaVuSans-6c" x="582.128906"/>
      <use xlink:href="#DejaVuSans-29" x="609.912109"/>
     </g>
    </g>
   </g>
   <g id="line2d_18">
    <path d="M 283.3725 106.727082 
L 460.85719 275.1732 
L 283.3725 451.836202 
L 94.384172 275.1732 
L 283.3725 106.727082 
" clip-path="url(#p4857693173)" style="fill: none; stroke: #00d4ff; stroke-width: 4; stroke-linecap: square"/>
   </g>
   <g id="PathCollection_1">
    <defs>
     <path id="m6e0ab991bf" d="M 0 3.162278 
C 0.838646 3.162278 1.643056 2.82908 2.236068 2.236068 
C 2.82908 1.643056 3.162278 0.838646 3.162278 0 
C 3.162278 -0.838646 2.82908 -1.643056 2.236068 -2.236068 
C 1.643056 -2.82908 0.838646 -3.162278 0 -3.162278 
C -0.838646 -3.162278 -1.643056 -2.82908 -2.236068 -2.236068 
C -2.82908 -1.643056 -3.162278 -0.838646 -3.162278 0 
C -3.162278 0.838646 -2.82908 1.643056 -2.236068 2.236068 
C -1.643056 2.82908 -0.838646 3.162278 0 3.162278 
z
" style="stroke: #e74c3c"/>
    </defs>
    <g clip-path="url(#p4857693173)">
     <use xlink:href="#m6e0ab991bf" x="283.3725" y="219.709234" style="fill: #ffffff; stroke: #e74c3c"/>
     <use xlink:href="#m6e0ab991bf" x="378.688352" y="275.1732" style="fill: #ffffff; stroke: #e74c3c"/>
     <use xlink:href="#m6e0ab991bf" x="283.3725" y="365.558922" style="fill: #ffffff; stroke: #e74c3c"/>
     <use xlink:href="#m6e0ab991bf" x="180.661452" y="275.1732" style="fill: #ffffff; stroke: #e74c3c"/>
     <use xlink:href="#m6e0ab991bf" x="283.3725" y="219.709234" style="fill: #ffffff; stroke: #e74c3c"/>
    </g>
   </g>
   <g id="PathCollection_2">
    <defs>
     <path id="m2f472782b1" d="M 0 3.162278 
C 0.838646 3.162278 1.643056 2.82908 2.236068 2.236068 
C 2.82908 1.643056 3.162278 0.838646 3.162278 0 
C 3.162278 -0.838646 2.82908 -1.643056 2.236068 -2.236068 
C 1.643056 -2.82908 0.838646 -3.162278 0 -3.162278 
C -0.838646 -3.162278 -1.643056 -2.82908 -2.236068 -2.236068 
C -2.82908 -1.643056 -3.162278 -0.838646 -3.162278 0 
C -3.162278 0.838646 -2.82908 1.643056 -2.236068 2.236068 
C -1.643056 2.82908 -0.838646 3.162278 0 3.162278 
z
" style="stroke: #f1c40f"/>
    </defs>
    <g clip-path="url(#p4857693173)">
     <use xlink:href="#m2f472782b1" x="283.3725" y="119.052408" style="fill: #ffffff; stroke: #f1c40f"/>
     <use xlink:href="#m2f472782b1" x="448.942709" y="275.1732" style="fill: #ffffff; stroke: #f1c40f"/>
     <use xlink:href="#m2f472782b1" x="283.3725" y="445.673539" style="fill: #ffffff; stroke: #f1c40f"/>
     <use xlink:href="#m2f472782b1" x="116.980603" y="275.1732" style="fill: #ffffff; stroke: #f1c40f"/>
     <use xlink:href="#m2f472782b1" x="283.3725" y="119.052408" style="fill: #ffffff; stroke: #f1c40f"/>
    </g>
   </g>
   <g id="PathCollection_3">
    <defs>
     <path id="md4cb4ea3a1" d="M 0 3.162278 
C 0.838646 3.162278 1.643056 2.82908 2.236068 2.236068 
C 2.82908 1.643056 3.162278 0.838646 3.162278 0 
C 3.162278 -0.838646 2.82908 -1.643056 2.236068 -2.236068 
C 1.643056 -2.82908 0.838646 -3.162278 0 -3.162278 
C -0.838646 -3.162278 -1.643056 -2.82908 -2.236068 -2.236068 
C -2.82908 -1.643056 -3.162278 -0.838646 -3.162278 0 
C -3.162278 0.838646 -2.82908 1.643056 -2.236068 2.236068 
C -1.643056 2.82908 -0.838646 3.162278 0 3.162278 
z
" style="stroke: #2ecc71"/>
    </defs>
    <g clip-path="url(#p4857693173)">
     <use xlink:href="#md4cb4ea3a1" x="283.3725" y="172.462152" style="fill: #ffffff; stroke: #2ecc71"/>
     <use xlink:href="#md4cb4ea3a1" x="408.269134" y="275.1732" style="fill: #ffffff; stroke: #2ecc71"/>
     <use xlink:href="#md4cb4ea3a1" x="283.3725" y="390.209573" style="fill: #ffffff; stroke: #2ecc71"/>
     <use xlink:href="#md4cb4ea3a1" x="135.468591" y="275.1732" style="fill: #ffffff; stroke: #2ecc71"/>
     <use xlink:href="#md4cb4ea3a1" x="283.3725" y="172.462152" style="fill: #ffffff; stroke: #2ecc71"/>
    </g>
   </g>
   <g id="PathCollection_4">
    <defs>
     <path id="m61cddf6417" d="M 0 4.1833 
C 1.109424 4.1833 2.173559 3.742521 2.95804 2.95804 
C 3.742521 2.173559 4.1833 1.109424 4.1833 0 
C 4.1833 -1.109424 3.742521 -2.173559 2.95804 -2.95804 
C 2.173559 -3.742521 1.109424 -4.1833 0 -4.1833 
C -1.109424 -4.1833 -2.173559 -3.742521 -2.95804 -2.95804 
C -3.742521 -2.173559 -4.1833 -1.109424 -4.1833 0 
C -4.1833 1.109424 -3.742521 2.173559 -2.95804 2.95804 
C -2.173559 3.742521 -1.109424 4.1833 0 4.1833 
z
" style="stroke: #00d4ff"/>
    </defs>
    <g clip-path="url(#p4857693173)">
     <use xlink:href="#m61cddf6417" x="283.3725" y="106.727082" style="fill: #ffffff; stroke: #00d4ff"/>
     <use xlink:href="#m61cddf6417" x="460.85719" y="275.1732" style="fill: #ffffff; stroke: #00d4ff"/>
     <use xlink:href="#m61cddf6417" x="283.3725" y="451.836202" style="fill: #ffffff; stroke: #00d4ff"/>
     <use xlink:href="#m61cddf6417" x="94.384172" y="275.1732" style="fill: #ffffff; stroke: #00d4ff"/>
     <use xlink:href="#m61cddf6417" x="283.3725" y="106.727082" style="fill: #ffffff; stroke: #00d4ff"/>
    </g>
   </g>
  </g>
 </g>
 <defs>
  <clipPath id="p4857693173">
   <path d="M 499.0657 275.1732 
C 499.0657 246.848628 493.486377 218.799478 482.647033 192.630986 
C 471.807689 166.462494 455.919121 142.683572 435.890624 122.655076 
C 415.862128 102.626579 392.083206 86.738011 365.914714 75.898667 
C 339.746222 65.059323 311.697072 59.48 283.3725 59.48 
C 255.047928 59.48 226.998778 65.059323 200.830286 75.898667 
C 174.661794 86.738011 150.882872 102.626579 130.854376 122.655076 
C 110.825879 142.683572 94.937311 166.462494 84.097967 192.630986 
C 73.258623 218.799478 67.6793 246.848628 67.6793 275.1732 
C 67.6793 303.497772 73.258623 331.546922 84.097967 357.715414 
C 94.937311 383.883906 110.825879 407.662828 130.854376 427.691324 
C 150.882872 447.719821 174.661794 463.608389 200.830286 474.447733 
C 226.998778 485.287077 255.047928 490.8664 283.3725 490.8664 
C 311.697072 490.8664 339.746222 485.287077 365.914714 474.447733 
C 392.083206 463.608389 415.862128 447.719821 435.890624 427.691324 
C 455.919121 407.662828 471.807689 383.883906 482.647033 357.715414 
C 493.486377 331.546922 499.0657 303.497772 499.0657 275.1732 
M 283.3725 275.1732 
C 283.3725 275.1732 283.3725 275.1732 283.3725 275.1732 
C 283.3725 275.1732 283.3725 275.1732 283.3725 275.1732 
C 283.3725 275.1732 283.3725 275.1732 283.3725 275.1732 
C 283.3725 275.1732 283.3725 275.1732 283.3725 275.1732 
C 283.3725 275.1732 283.3725 275.1732 283.3725 275.1732 
C 283.3725 275.1732 283.3725 275.1732 283.3725 275.1732 
C 283.3725 275.1732 283.3725 275.1732 283.3725 275.1732 
C 283.3725 275.1732 283.3725 275.1732 283.3725 275.1732 
C 283.3725 275.1732 283.3725 275.1732 283.3725 275.1732 
C 283.3725 275.1732 283.3725 275.1732 283.3725 275.1732 
C 283.3725 275.1732 283.3725 275.1732 283.3725 275.1732 
C 283.3725 275.1732 283.3725 275.1732 283.3725 275.1732 
C 283.3725 275.1732 283.3725 275.1732 283.3725 275.1732 
C 283.3725 275.1732 283.3725 275.1732 283.3725 275.1732 
C 283.3725 275.1732 283.3725 275.1732 283.3725 275.1732 
C 283.3725 275.1732 283.3725 275.1732 283.3725 275.1732 
z
"/>
  </clipPath>
 </defs>
</svg>
