<?xml version="1.0" encoding="UTF-8" standalone="no"?>
<svg
   width="612pt"
   height="558.5614pt"
   viewBox="0 0 612 558.5614"
   version="1.1"
   id="svg536"
   sodipodi:docname="ablation.svg"
   inkscape:version="1.3.2 (091e20ef0f, 2023-11-25)"
   xmlns:inkscape="http://www.inkscape.org/namespaces/inkscape"
   xmlns:sodipodi="http://sodipodi.sourceforge.net/DTD/sodipodi-0.dtd"
   xmlns:xlink="http://www.w3.org/1999/xlink"
   xmlns="http://www.w3.org/2000/svg"
   xmlns:svg="http://www.w3.org/2000/svg"
   xmlns:rdf="http://www.w3.org/1999/02/22-rdf-syntax-ns#"
   xmlns:cc="http://creativecommons.org/ns#"
   xmlns:dc="http://purl.org/dc/elements/1.1/">
  <sodipodi:namedview
     id="namedview538"
     pagecolor="#ffffff"
     bordercolor="#666666"
     borderopacity="1.0"
     inkscape:pageshadow="2"
     inkscape:pageopacity="0.0"
     inkscape:pagecheckerboard="0"
     inkscape:document-units="pt"
     showgrid="false"
     inkscape:zoom="0.25582108"
     inkscape:cx="328.35449"
     inkscape:cy="854.11257"
     inkscape:window-width="1536"
     inkscape:window-height="727"
     inkscape:window-x="0"
     inkscape:window-y="32"
     inkscape:window-maximized="1"
     inkscape:current-layer="figure_1"
     inkscape:showpageshadow="2"
     inkscape:deskcolor="#d1d1d1" />
  <metadata
     id="metadata2">
    <rdf:RDF>
      <cc:Work>
        <dc:type
           rdf:resource="http://purl.org/dc/dcmitype/StillImage" />
        <dc:date>2026-04-29T14:05:25.969677</dc:date>
        <dc:format>image/svg+xml</dc:format>
        <dc:creator>
          <cc:Agent>
            <dc:title>Matplotlib v3.9.4, https://matplotlib.org/</dc:title>
          </cc:Agent>
        </dc:creator>
      </cc:Work>
    </rdf:RDF>
  </metadata>
  <defs
     id="defs6">
    <style
       type="text/css"
       id="style4">*{stroke-linejoin: round; stroke-linecap: butt}</style>
  </defs>
  <g
     id="figure_1">
    <g
       id="patch_1"
       transform="scale(1,0.91268201)">
      <path
         d="M 0,612 H 612 V 0 H 0 Z"
         style="fill:#1a1a1a"
         id="path8" />
    </g>
    <g
       id="axes_1">
      <g
         id="patch_2">
        <path
           d="m 523.9735,289.556 c 0,-29.33609 -5.77857,-58.38693 -17.00501,-85.48995 C 495.74205,176.96303 479.28608,152.33492 458.54233,131.59117 437.79858,110.84742 413.17046,94.391445 386.06745,83.165008 358.96443,71.938571 329.91359,66.16 300.5775,66.16 c -29.33609,0 -58.38693,5.778571 -85.48995,17.005008 -27.10302,11.226437 -51.73113,27.682412 -72.47488,48.426162 -20.74375,20.74375 -37.19973,45.37186 -48.426162,72.47488 C 82.960071,231.16907 77.1815,260.21991 77.1815,289.556 c 0,29.33609 5.778571,58.38693 17.005008,85.48995 11.226432,27.10301 27.682412,51.73113 48.426162,72.47488 20.74375,20.74375 45.37186,37.19972 72.47488,48.42616 27.10302,11.22644 56.15386,17.00501 85.48995,17.00501 29.33609,0 58.38693,-5.77857 85.48995,-17.00501 27.10301,-11.22644 51.73113,-27.68241 72.47488,-48.42616 20.74375,-20.74375 37.19972,-45.37187 48.42616,-72.47488 11.22644,-27.10302 17.00501,-56.15386 17.00501,-85.48995 m -223.396,0 c 0,0 0,0 0,0 0,0 0,0 0,0 0,0 0,0 0,0 0,0 0,0 0,0 0,0 0,0 0,0 0,0 0,0 0,0 0,0 0,0 0,0 0,0 0,0 0,0 0,0 0,0 0,0 0,0 0,0 0,0 0,0 0,0 0,0 0,0 0,0 0,0 0,0 0,0 0,0 0,0 0,0 0,0 z"
           style="fill:#1a1a1a"
           id="path11" />
      </g>
      <g
         id="patch_3">
        <path
           d="M 300.5775,232.11131 399.29726,289.556 300.5775,383.16956 194.19845,289.556 Z"
           clip-path="url(#pc876912fc7)"
           style="opacity:0.15;fill:#ff3f3f;stroke:#ff3f3f;stroke-linejoin:miter"
           id="path14" />
      </g>
      <g
         id="patch_4">
        <path
           d="M 300.5775,127.85985 472.06052,289.556 300.5775,466.14522 128.24344,289.556 Z"
           clip-path="url(#pc876912fc7)"
           style="opacity:0.2;fill:#ffd700;stroke:#ffd700;stroke-linejoin:miter"
           id="path17" />
      </g>
      <g
         id="matplotlib.axis_1">
        <g
           id="xtick_1">
          <g
             id="line2d_1">
            <path
               d="M 300.5775,289.556 V 66.16"
               clip-path="url(#pc876912fc7)"
               style="fill:none;stroke:#555555;stroke-linecap:square"
               id="path20" />
          </g>
          <g
             id="text_1">
            <!-- STOI -->
            <g
               style="fill:#ffffff"
               transform="matrix(0.14,0,0,-0.14,282.20578,56.023125)"
               id="g37">
              <defs
                 id="defs27">
                <path
                   id="DejaVuSans-Bold-53"
                   d="m 3834,4519 v -988 q -384,172 -750,259 -365,88 -690,88 -431,0 -638,-119 -206,-118 -206,-368 0,-188 139,-293 139,-104 505,-179 l 512,-103 q 778,-157 1106,-476 329,-318 329,-906 Q 4141,663 3683,286 3225,-91 2284,-91 1841,-91 1394,-6 947,78 500,244 v 1015 q 447,-237 864,-358 417,-120 805,-120 394,0 603,131 209,132 209,376 0,218 -142,337 -142,119 -567,213 l -466,103 q -700,150 -1024,478 -323,328 -323,884 0,697 450,1072 450,375 1294,375 385,0 791,-58 406,-58 840,-173 z"
                   transform="scale(0.015625)" />
                <path
                   id="DejaVuSans-Bold-54"
                   d="M 31,4666 H 4331 V 3756 H 2784 V 0 H 1581 V 3756 H 31 Z"
                   transform="scale(0.015625)" />
                <path
                   id="DejaVuSans-Bold-4f"
                   d="m 2719,3878 q -550,0 -853,-406 -303,-406 -303,-1144 0,-734 303,-1141 303,-406 853,-406 553,0 856,406 303,407 303,1141 0,738 -303,1144 -303,406 -856,406 z m 0,872 q 1125,0 1762,-644 638,-643 638,-1778 Q 5119,1197 4481,553 3844,-91 2719,-91 1597,-91 958,553 319,1197 319,2328 q 0,1135 639,1778 639,644 1761,644 z"
                   transform="scale(0.015625)" />
                <path
                   id="DejaVuSans-Bold-49"
                   d="M 588,4666 H 1791 V 0 H 588 Z"
                   transform="scale(0.015625)" />
              </defs>
              <use
                 xlink:href="#DejaVuSans-Bold-53"
                 id="use29" />
              <use
                 xlink:href="#DejaVuSans-Bold-54"
                 x="72.021484"
                 id="use31" />
              <use
                 xlink:href="#DejaVuSans-Bold-4f"
                 x="140.23438"
                 id="use33" />
              <use
                 xlink:href="#DejaVuSans-Bold-49"
                 x="225.24414"
                 id="use35" />
            </g>
          </g>
        </g>
        <g
           id="xtick_2">
          <g
             id="line2d_2">
            <path
               d="m 300.5775,289.556 h 223.396"
               clip-path="url(#pc876912fc7)"
               style="fill:none;stroke:#555555;stroke-linecap:square"
               id="path41" />
          </g>
          <g
             id="text_2">
            <!-- N-MOS -->
            <g
               style="fill:#ffffff"
               transform="matrix(0.14,0,0,-0.14,511.25209,285.58066)"
               id="g59">
              <defs
                 id="defs47">
                <path
                   id="DejaVuSans-Bold-4e"
                   d="M 588,4666 H 1931 L 3628,1466 V 4666 H 4769 V 0 H 3425 L 1728,3200 V 0 H 588 Z"
                   transform="scale(0.015625)" />
                <path
                   id="DejaVuSans-Bold-2d"
                   d="M 347,2297 H 2309 V 1388 H 347 Z"
                   transform="scale(0.015625)" />
                <path
                   id="DejaVuSans-Bold-4d"
                   d="M 588,4666 H 2119 L 3181,2169 4250,4666 H 5778 V 0 H 4641 V 3413 L 3566,897 H 2803 L 1728,3413 V 0 H 588 Z"
                   transform="scale(0.015625)" />
              </defs>
              <use
                 xlink:href="#DejaVuSans-Bold-4e"
                 id="use49" />
              <use
                 xlink:href="#DejaVuSans-Bold-2d"
                 x="83.691406"
                 id="use51" />
              <use
                 xlink:href="#DejaVuSans-Bold-4d"
                 x="125.19531"
                 id="use53" />
              <use
                 xlink:href="#DejaVuSans-Bold-4f"
                 x="224.70703"
                 id="use55" />
              <use
                 xlink:href="#DejaVuSans-Bold-53"
                 x="309.7168"
                 id="use57" />
            </g>
            <!-- (norm) -->
            <g
               style="fill:#ffffff"
               transform="matrix(0.14,0,0,-0.14,511.03663,301.25759)"
               id="g81">
              <defs
                 id="defs67">
                <path
                   id="DejaVuSans-Bold-28"
                   d="M 2413,-844 H 1484 Q 1006,-72 778,623 550,1319 550,2003 q 0,685 229,1386 230,702 705,1467 h 929 q -400,-740 -600,-1448 -200,-708 -200,-1399 0,-690 198,-1400 198,-709 602,-1453 z"
                   transform="scale(0.015625)" />
                <path
                   id="DejaVuSans-Bold-6e"
                   d="M 4056,2131 V 0 H 2931 v 347 1284 q 0,453 -20,625 -20,172 -70,253 -66,110 -179,171 -112,61 -256,61 -350,0 -550,-271 -200,-270 -200,-748 V 0 H 538 v 3500 h 1118 v -512 q 253,306 537,451 285,145 629,145 606,0 920,-372 314,-371 314,-1081 z"
                   transform="scale(0.015625)" />
                <path
                   id="DejaVuSans-Bold-6f"
                   d="m 2203,2784 q -372,0 -567,-267 -195,-267 -195,-770 0,-503 195,-771 195,-267 567,-267 366,0 559,267 194,268 194,771 0,503 -194,770 -193,267 -559,267 z m 0,800 q 903,0 1411,-488 508,-487 508,-1349 Q 4122,884 3614,396 3106,-91 2203,-91 1297,-91 786,396 275,884 275,1747 q 0,862 511,1349 511,488 1417,488 z"
                   transform="scale(0.015625)" />
                <path
                   id="DejaVuSans-Bold-72"
                   d="m 3138,2547 q -147,69 -293,101 -145,33 -292,33 -431,0 -664,-277 -233,-276 -233,-791 V 0 H 538 v 3500 h 1118 v -575 q 216,344 495,501 280,158 671,158 56,0 121,-5 66,-4 191,-20 z"
                   transform="scale(0.015625)" />
                <path
                   id="DejaVuSans-Bold-6d"
                   d="m 3781,2919 q 213,325 505,495 292,170 642,170 603,0 919,-372 316,-371 316,-1081 V 0 H 5038 v 1825 q 3,41 4,84 2,44 2,125 0,372 -110,539 -109,168 -353,168 -318,0 -492,-263 -173,-262 -180,-759 V 0 H 2784 v 1825 q 0,581 -100,748 -100,168 -356,168 -322,0 -497,-264 -175,-264 -175,-755 V 0 H 531 v 3500 h 1125 v -512 q 207,296 474,446 267,150 589,150 362,0 640,-175 279,-175 422,-490 z"
                   transform="scale(0.015625)" />
                <path
                   id="DejaVuSans-Bold-29"
                   d="m 513,-844 q 400,744 600,1453 200,710 200,1400 0,691 -200,1399 -200,708 -600,1448 h 928 q 475,-765 704,-1467 230,-701 230,-1386 0,-684 -228,-1380 -228,-695 -706,-1467 z"
                   transform="scale(0.015625)" />
              </defs>
              <use
                 xlink:href="#DejaVuSans-Bold-28"
                 id="use69" />
              <use
                 xlink:href="#DejaVuSans-Bold-6e"
                 x="45.703125"
                 id="use71" />
              <use
                 xlink:href="#DejaVuSans-Bold-6f"
                 x="116.89453"
                 id="use73" />
              <use
                 xlink:href="#DejaVuSans-Bold-72"
                 x="185.5957"
                 id="use75" />
              <use
                 xlink:href="#DejaVuSans-Bold-6d"
                 x="234.91211"
                 id="use77" />
              <use
                 xlink:href="#DejaVuSans-Bold-29"
                 x="339.11133"
                 id="use79" />
            </g>
          </g>
        </g>
        <g
           id="xtick_3">
          <g
             id="line2d_3">
            <path
               d="M 300.5775,289.556 V 512.952"
               clip-path="url(#pc876912fc7)"
               style="fill:none;stroke:#555555;stroke-linecap:square"
               id="path85" />
          </g>
          <g
             id="text_3">
            <!-- SBS -->
            <g
               style="fill:#ffffff"
               transform="matrix(0.14,0,0,-0.14,285.16,530.81512)"
               id="g97">
              <defs
                 id="defs89">
                <path
                   id="DejaVuSans-Bold-42"
                   d="m 2456,2859 q 285,0 431,125 147,125 147,369 0,241 -147,367 -146,127 -431,127 h -665 v -988 z m 41,-2040 q 362,0 545,153 183,153 183,462 0,304 -181,455 -181,152 -547,152 H 1791 V 819 Z m 1119,1678 q 387,-113 599,-416 213,-303 213,-743 Q 4428,663 3972,331 3516,0 2584,0 H 588 v 4666 h 1806 q 972,0 1408,-294 436,-294 436,-941 0,-340 -160,-579 -159,-239 -462,-355 z"
                   transform="scale(0.015625)" />
              </defs>
              <use
                 xlink:href="#DejaVuSans-Bold-53"
                 id="use91" />
              <use
                 xlink:href="#DejaVuSans-Bold-42"
                 x="72.021484"
                 id="use93" />
              <use
                 xlink:href="#DejaVuSans-Bold-53"
                 x="148.24219"
                 id="use95" />
            </g>
          </g>
        </g>
        <g
           id="xtick_4">
          <g
             id="line2d_4">
            <path
               d="M 300.5775,289.556 H 77.1815"
               clip-path="url(#pc876912fc7)"
               style="fill:none;stroke:#555555;stroke-linecap:square"
               id="path101" />
          </g>
          <g
             id="text_4">
            <!-- COS -->
            <g
               style="fill:#ffffff"
               transform="matrix(0.14,0,0,-0.14,47.051969,293.41912)"
               id="g113">
              <defs
                 id="defs105">
                <path
                   id="DejaVuSans-Bold-43"
                   d="M 4288,256 Q 3956,84 3597,-3 3238,-91 2847,-91 1681,-91 1000,561 319,1213 319,2328 q 0,1119 681,1770 681,652 1847,652 391,0 750,-88 359,-87 691,-259 v -965 q -335,228 -660,334 -325,106 -684,106 -644,0 -1013,-413 -368,-412 -368,-1137 0,-722 368,-1135 369,-412 1013,-412 359,0 684,106 325,107 660,335 z"
                   transform="scale(0.015625)" />
              </defs>
              <use
                 xlink:href="#DejaVuSans-Bold-43"
                 id="use107" />
              <use
                 xlink:href="#DejaVuSans-Bold-4f"
                 x="73.388672"
                 id="use109" />
              <use
                 xlink:href="#DejaVuSans-Bold-53"
                 x="158.39844"
                 id="use111" />
            </g>
          </g>
        </g>
      </g>
      <g
         id="matplotlib.axis_2">
        <g
           id="ytick_1">
          <g
             id="line2d_5">
            <path
               d="m 300.5775,247.00438 c 5.58783,0 11.12132,1.10068 16.2838,3.23905 5.16248,2.13837 9.85355,5.27284 13.80474,9.22403 3.95119,3.95119 7.08566,8.64226 9.22403,13.80474 2.13837,5.16248 3.23905,10.69597 3.23905,16.2838 0,5.58783 -1.10068,11.12132 -3.23905,16.2838 -2.13837,5.16248 -5.27284,9.85355 -9.22403,13.80474 -3.95119,3.95119 -8.64226,7.08566 -13.80474,9.22403 -5.16248,2.13837 -10.69597,3.23905 -16.2838,3.23905 -5.58783,0 -11.12132,-1.10068 -16.2838,-3.23905 -5.16248,-2.13837 -9.85355,-5.27284 -13.80474,-9.22403 -3.95119,-3.95119 -7.08566,-8.64226 -9.22403,-13.80474 -2.13837,-5.16248 -3.23905,-10.69597 -3.23905,-16.2838 0,-5.58783 1.10068,-11.12132 3.23905,-16.2838 2.13837,-5.16248 5.27284,-9.85355 9.22403,-13.80474 3.95119,-3.95119 8.64226,-7.08566 13.80474,-9.22403 5.16248,-2.13837 10.69597,-3.23905 16.2838,-3.23905"
               clip-path="url(#pc876912fc7)"
               style="fill:none;stroke:#555555;stroke-linecap:square"
               id="path118" />
          </g>
          <g
             id="text_5">
            <!-- 0.2 -->
            <g
               style="fill:#ffffff"
               transform="matrix(0.12,0,0,-0.12,300.5775,244.50876)"
               id="g132">
              <defs
                 id="defs124">
                <path
                   id="DejaVuSans-Bold-30"
                   d="m 2944,2338 q 0,875 -164,1232 -164,358 -552,358 -387,0 -553,-358 -166,-357 -166,-1232 0,-885 166,-1248 166,-362 553,-362 385,0 550,362 166,363 166,1248 z m 1203,-10 Q 4147,1169 3647,539 3147,-91 2228,-91 1306,-91 806,539 306,1169 306,2328 q 0,1163 500,1792 500,630 1422,630 919,0 1419,-630 500,-629 500,-1792 z"
                   transform="scale(0.015625)" />
                <path
                   id="DejaVuSans-Bold-2e"
                   d="M 653,1209 H 1778 V 0 H 653 Z"
                   transform="scale(0.015625)" />
                <path
                   id="DejaVuSans-Bold-32"
                   d="M 1844,884 H 3897 V 0 H 506 v 884 l 1703,1504 q 229,206 338,403 109,197 109,409 0,328 -220,528 -220,200 -586,200 -281,0 -616,-120 -334,-120 -715,-358 v 1025 q 406,134 803,204 397,71 778,71 838,0 1302,-369 464,-368 464,-1028 0,-381 -197,-711 -197,-329 -828,-883 z"
                   transform="scale(0.015625)" />
              </defs>
              <use
                 xlink:href="#DejaVuSans-Bold-30"
                 id="use126" />
              <use
                 xlink:href="#DejaVuSans-Bold-2e"
                 x="69.580078"
                 id="use128" />
              <use
                 xlink:href="#DejaVuSans-Bold-32"
                 x="107.56836"
                 id="use130" />
            </g>
          </g>
        </g>
        <g
           id="ytick_2">
          <g
             id="line2d_6">
            <path
               d="m 300.5775,204.45276 c 11.17565,0 22.24264,2.20136 32.5676,6.4781 10.32496,4.27674 19.70709,10.54568 27.60948,18.44806 7.90238,7.90238 14.17132,17.28452 18.44806,27.60948 4.27674,10.32496 6.4781,21.39194 6.4781,32.5676 0,11.17565 -2.20136,22.24264 -6.4781,32.5676 -4.27674,10.32496 -10.54568,19.70709 -18.44806,27.60948 -7.90239,7.90238 -17.28452,14.17132 -27.60948,18.44806 -10.32496,4.27674 -21.39195,6.4781 -32.5676,6.4781 -11.17566,0 -22.24264,-2.20136 -32.5676,-6.4781 -10.32496,-4.27674 -19.7071,-10.54568 -27.60948,-18.44806 -7.90238,-7.90239 -14.17132,-17.28452 -18.44806,-27.60948 -4.27674,-10.32496 -6.4781,-21.39195 -6.4781,-32.5676 0,-11.17566 2.20136,-22.24264 6.4781,-32.5676 4.27674,-10.32496 10.54568,-19.7071 18.44806,-27.60948 7.90238,-7.90238 17.28452,-14.17132 27.60948,-18.44806 10.32496,-4.27674 21.39194,-6.4781 32.5676,-6.4781"
               clip-path="url(#pc876912fc7)"
               style="fill:none;stroke:#555555;stroke-linecap:square"
               id="path136" />
          </g>
          <g
             id="text_6">
            <!-- 0.4 -->
            <g
               style="fill:#ffffff"
               transform="matrix(0.12,0,0,-0.12,300.5775,201.95714)"
               id="g148">
              <defs
                 id="defs140">
                <path
                   id="DejaVuSans-Bold-34"
                   d="M 2356,3675 1038,1722 h 1318 z m -200,991 H 3494 V 1722 h 665 V 850 H 3494 V 0 H 2356 V 850 H 288 v 1031 z"
                   transform="scale(0.015625)" />
              </defs>
              <use
                 xlink:href="#DejaVuSans-Bold-30"
                 id="use142" />
              <use
                 xlink:href="#DejaVuSans-Bold-2e"
                 x="69.580078"
                 id="use144" />
              <use
                 xlink:href="#DejaVuSans-Bold-34"
                 x="107.56836"
                 id="use146" />
            </g>
          </g>
        </g>
        <g
           id="ytick_3">
          <g
             id="line2d_7">
            <path
               d="m 300.5775,161.90114 c 16.76348,0 33.36396,3.30204 48.8514,9.71715 15.48744,6.41511 29.56064,15.81852 41.41421,27.67209 11.85358,11.85358 21.25699,25.92678 27.6721,41.41422 6.41511,15.48744 9.71715,32.08792 9.71715,48.8514 0,16.76348 -3.30204,33.36396 -9.71715,48.8514 -6.41511,15.48744 -15.81852,29.56064 -27.6721,41.41421 -11.85357,11.85358 -25.92677,21.25699 -41.41421,27.6721 -15.48744,6.41511 -32.08792,9.71715 -48.8514,9.71715 -16.76348,0 -33.36396,-3.30204 -48.8514,-9.71715 -15.48744,-6.41511 -29.56064,-15.81852 -41.41422,-27.6721 -11.85357,-11.85357 -21.25698,-25.92677 -27.67209,-41.41421 -6.41511,-15.48744 -9.71715,-32.08792 -9.71715,-48.8514 0,-16.76348 3.30204,-33.36396 9.71715,-48.8514 6.41511,-15.48744 15.81852,-29.56064 27.67209,-41.41422 11.85358,-11.85357 25.92678,-21.25698 41.41422,-27.67209 15.48744,-6.41511 32.08792,-9.71715 48.8514,-9.71715"
               clip-path="url(#pc876912fc7)"
               style="fill:none;stroke:#555555;stroke-linecap:square"
               id="path152" />
          </g>
          <g
             id="text_7">
            <!-- 0.6 -->
            <g
               style="fill:#ffffff"
               transform="matrix(0.12,0,0,-0.12,300.5775,159.40552)"
               id="g164">
              <defs
                 id="defs156">
                <path
                   id="DejaVuSans-Bold-36"
                   d="m 2316,2303 q -316,0 -474,-205 -158,-204 -158,-614 0,-409 158,-614 158,-204 474,-204 318,0 476,204 158,205 158,614 0,410 -158,614 -158,205 -476,205 z m 1487,2241 v -863 q -297,141 -560,208 -262,67 -512,67 -537,0 -837,-299 -300,-298 -350,-885 206,153 446,229 241,77 526,77 715,0 1154,-419 439,-418 439,-1096 0,-750 -491,-1202 -490,-452 -1315,-452 -909,0 -1408,614 -498,615 -498,1743 0,1156 583,1817 583,661 1598,661 322,0 625,-50 303,-50 600,-150 z"
                   transform="scale(0.015625)" />
              </defs>
              <use
                 xlink:href="#DejaVuSans-Bold-30"
                 id="use158" />
              <use
                 xlink:href="#DejaVuSans-Bold-2e"
                 x="69.580078"
                 id="use160" />
              <use
                 xlink:href="#DejaVuSans-Bold-36"
                 x="107.56836"
                 id="use162" />
            </g>
          </g>
        </g>
        <g
           id="ytick_4">
          <g
             id="line2d_8">
            <path
               d="m 300.5775,119.34952 c 22.35131,0 44.48528,4.40272 65.1352,12.9562 20.64992,8.55348 39.41419,21.09136 55.21895,36.89613 15.80477,15.80476 28.34265,34.56903 36.89613,55.21895 8.55348,20.64992 12.9562,42.78389 12.9562,65.1352 0,22.35131 -4.40272,44.48528 -12.9562,65.1352 -8.55348,20.64992 -21.09136,39.41419 -36.89613,55.21895 -15.80476,15.80477 -34.56903,28.34265 -55.21895,36.89613 -20.64992,8.55348 -42.78389,12.9562 -65.1352,12.9562 -22.35131,0 -44.48528,-4.40272 -65.1352,-12.9562 -20.64992,-8.55348 -39.41419,-21.09136 -55.21895,-36.89613 -15.80477,-15.80476 -28.34265,-34.56903 -36.89613,-55.21895 -8.55348,-20.64992 -12.9562,-42.78389 -12.9562,-65.1352 0,-22.35131 4.40272,-44.48528 12.9562,-65.1352 8.55348,-20.64992 21.09136,-39.41419 36.89613,-55.21895 15.80476,-15.80477 34.56903,-28.34265 55.21895,-36.89613 20.64992,-8.55348 42.78389,-12.9562 65.1352,-12.9562"
               clip-path="url(#pc876912fc7)"
               style="fill:none;stroke:#555555;stroke-linecap:square"
               id="path168" />
          </g>
          <g
             id="text_8">
            <!-- 0.8 -->
            <g
               style="fill:#ffffff"
               transform="matrix(0.12,0,0,-0.12,300.5775,116.8539)"
               id="g180">
              <defs
                 id="defs172">
                <path
                   id="DejaVuSans-Bold-38"
                   d="m 2228,2088 q -337,0 -519,-185 -181,-184 -181,-528 0,-344 181,-527 182,-182 519,-182 335,0 513,182 178,183 178,527 0,347 -178,530 -178,183 -513,183 z m -878,396 q -425,129 -641,394 -215,266 -215,663 0,590 440,899 441,310 1294,310 847,0 1287,-308 441,-308 441,-901 0,-397 -217,-663 -217,-265 -642,-394 475,-131 717,-426 242,-295 242,-745 Q 4056,619 3595,264 3134,-91 2228,-91 1319,-91 855,264 391,619 391,1313 q 0,450 242,745 242,295 717,426 z m 281,935 q 0,-278 155,-428 155,-150 442,-150 281,0 434,150 154,150 154,428 0,278 -154,426 -153,149 -434,149 -287,0 -442,-150 -155,-150 -155,-425 z"
                   transform="scale(0.015625)" />
              </defs>
              <use
                 xlink:href="#DejaVuSans-Bold-30"
                 id="use174" />
              <use
                 xlink:href="#DejaVuSans-Bold-2e"
                 x="69.580078"
                 id="use176" />
              <use
                 xlink:href="#DejaVuSans-Bold-38"
                 x="107.56836"
                 id="use178" />
            </g>
          </g>
        </g>
        <g
           id="ytick_5">
          <g
             id="line2d_9">
            <path
               d="m 300.5775,76.797905 c 27.93914,0 55.6066,5.503401 81.419,16.195245 25.81239,10.69185 49.26774,26.3642 69.02369,46.12016 19.75595,19.75595 35.42831,43.21129 46.12016,69.02369 10.69184,25.8124 16.19524,53.47986 16.19524,81.419 0,27.93914 -5.5034,55.6066 -16.19524,81.419 -10.69185,25.81239 -26.36421,49.26774 -46.12016,69.02369 -19.75595,19.75595 -43.2113,35.42831 -69.02369,46.12016 -25.8124,10.69184 -53.47986,16.19524 -81.419,16.19524 -27.93914,0 -55.6066,-5.5034 -81.419,-16.19524 C 193.3461,475.427 169.89076,459.75464 150.13481,439.99869 130.37885,420.24274 114.7065,396.78739 104.01465,370.975 93.322806,345.1626 87.819405,317.49514 87.819405,289.556 c 0,-27.93914 5.503401,-55.6066 16.195245,-81.419 10.69185,-25.8124 26.3642,-49.26774 46.12016,-69.02369 19.75595,-19.75596 43.21129,-35.42831 69.02369,-46.12016 25.8124,-10.691844 53.47986,-16.195245 81.419,-16.195245"
               clip-path="url(#pc876912fc7)"
               style="fill:none;stroke:#555555;stroke-linecap:square"
               id="path184" />
          </g>
          <g
             id="text_9">
            <!-- 1.0 -->
            <g
               style="fill:#ffffff"
               transform="matrix(0.12,0,0,-0.12,300.5775,74.30228)"
               id="g196">
              <defs
                 id="defs188">
                <path
                   id="DejaVuSans-Bold-31"
                   d="M 750,831 H 1813 V 3847 L 722,3622 v 819 l 1084,225 H 2950 V 831 H 4013 V 0 H 750 Z"
                   transform="scale(0.015625)" />
              </defs>
              <use
                 xlink:href="#DejaVuSans-Bold-31"
                 id="use190" />
              <use
                 xlink:href="#DejaVuSans-Bold-2e"
                 x="69.580078"
                 id="use192" />
              <use
                 xlink:href="#DejaVuSans-Bold-30"
                 x="107.56836"
                 id="use194" />
            </g>
          </g>
        </g>
      </g>
      <g
         id="patch_5">
        <path
           d="M 300.5775,183.17695 429.93442,289.556 300.5775,408.70053 147.39167,289.556 Z"
           clip-path="url(#pc876912fc7)"
           style="opacity:0.25;fill:#00ff00;stroke:#00ff00;stroke-linejoin:miter"
           id="path201" />
      </g>
      <g
         id="line2d_10">
        <path
           d="m 300.5775,76.797905 13.49395,0.428351 13.43962,1.283327 13.33116,2.133138 13.16904,2.974357 12.95387,3.803601 12.68656,4.617528 12.36815,5.412863 11.99994,6.1864 11.58342,6.93503 11.12025,7.65573 10.61231,8.34561 10.06163,9.00188 9.47043,9.62191 8.84111,10.20319 8.17619,10.74338 7.47833,11.24031 6.75038,11.692 5.99523,12.09658 5.21595,12.45248 4.41566,12.75822 3.5976,13.01259 2.76504,13.21456 1.92136,13.36334 1.06993,13.45828 0.2142,13.49905 -0.64239,13.48546 -1.4964,13.41756 -2.34438,13.29565 -3.18292,13.12018 -4.00865,12.8919 -4.81823,12.61169 -5.60841,12.28072 -6.37602,11.90028 -7.11793,11.47193 -7.83121,10.99738 -8.51293,10.47856 -9.16039,9.91754 -9.77095,9.31659 -10.34217,8.67811 -10.87175,8.0047 -11.35756,7.29906 -11.79762,6.56402 -12.19018,5.80255 -12.53367,5.01772 -12.82667,4.21269 -13.06803,3.39068 -13.25677,2.55504 -13.39214,1.70909 -13.47357,0.85627 h -13.50074 l -13.47357,-0.85627 -13.39214,-1.70909 -13.25677,-2.55504 -13.06803,-3.39068 -12.82667,-4.21269 -12.53367,-5.01772 -12.19018,-5.80255 -11.79762,-6.56402 -11.35756,-7.29906 -10.87175,-8.0047 -10.34217,-8.67811 -9.77095,-9.31659 -9.16039,-9.91754 -8.51293,-10.47856 -7.83121,-10.99738 -7.11794,-11.47193 -6.37601,-11.90028 -5.60841,-12.28072 -4.818234,-12.61169 -4.008648,-12.8919 -3.182922,-13.12018 -2.344381,-13.29565 -1.496398,-13.41756 -0.642392,-13.48546 0.214203,-13.49905 1.069933,-13.45828 1.921357,-13.36334 2.765044,-13.21456 3.597596,-13.01259 4.415662,-12.75822 5.21595,-12.45248 5.99523,-12.09658 6.75038,-11.692 7.47833,-11.24031 8.17619,-10.74338 8.84111,-10.20319 9.47043,-9.62191 10.06163,-9.00188 10.61231,-8.34561 11.12025,-7.65573 11.58342,-6.93503 11.99994,-6.1864 12.36815,-5.412863 12.68656,-4.617528 12.95387,-3.803601 13.16904,-2.974357 13.33116,-2.133138 13.43962,-1.283327 13.49395,-0.428351"
           clip-path="url(#pc876912fc7)"
           style="fill:none;stroke:#ffffff;stroke-width:1.5;stroke-linecap:square;stroke-opacity:0.7"
           id="path204" />
      </g>
      <g
         id="patch_6">
        <path
           d="M 300.5775,115.09436 484.40049,289.556 300.5775,472.52796 104.84005,289.556 Z"
           clip-path="url(#pc876912fc7)"
           style="opacity:0.4;fill:#00ffff;stroke:#00ffff;stroke-linejoin:miter"
           id="path207" />
      </g>
      <g
         id="text_10">
        <!-- Ablation Analysis: Performance Impact -->
        <g
           style="fill:#ffffff"
           transform="matrix(0.2,0,0,-0.2,81.032187,26.16)"
           id="g301">
          <defs
             id="defs225">
            <path
               id="DejaVuSans-Bold-41"
               d="M 3419,850 H 1538 L 1241,0 H 31 L 1759,4666 H 3194 L 4922,0 H 3713 Z m -1581,866 h 1278 l -638,1856 z"
               transform="scale(0.015625)" />
            <path
               id="DejaVuSans-Bold-62"
               d="m 2400,722 q 359,0 548,262 190,263 190,763 0,500 -190,762 -189,263 -548,263 -359,0 -552,-264 -192,-264 -192,-761 0,-497 192,-761 193,-264 552,-264 z m -744,2266 q 232,306 513,451 281,145 647,145 647,0 1062,-514 416,-514 416,-1323 Q 4294,938 3878,423 3463,-91 2816,-91 2450,-91 2169,54 1888,200 1656,506 V 0 H 538 v 4863 h 1118 z"
               transform="scale(0.015625)" />
            <path
               id="DejaVuSans-Bold-6c"
               d="M 538,4863 H 1656 V 0 H 538 Z"
               transform="scale(0.015625)" />
            <path
               id="DejaVuSans-Bold-61"
               d="m 2106,1575 q -350,0 -527,-119 -176,-118 -176,-350 0,-212 142,-333 143,-120 396,-120 315,0 531,226 216,227 216,568 v 128 z m 1710,422 V 0 H 2688 V 519 Q 2463,200 2181,54 1900,-91 1497,-91 953,-91 614,226 275,544 275,1050 q 0,616 423,903 424,288 1330,288 h 660 v 87 q 0,266 -210,389 -209,124 -653,124 -359,0 -669,-72 -309,-72 -575,-216 v 853 q 360,88 722,133 363,45 725,45 947,0 1367,-373 421,-373 421,-1214 z"
               transform="scale(0.015625)" />
            <path
               id="DejaVuSans-Bold-74"
               d="M 1759,4494 V 3500 H 2913 V 2700 H 1759 V 1216 q 0,-244 97,-330 97,-86 385,-86 h 575 V 0 H 1856 Q 1194,0 917,276 641,553 641,1216 V 2700 H 84 v 800 h 557 v 994 z"
               transform="scale(0.015625)" />
            <path
               id="DejaVuSans-Bold-69"
               d="M 538,3500 H 1656 V 0 H 538 Z m 0,1363 H 1656 V 3950 H 538 Z"
               transform="scale(0.015625)" />
            <path
               id="DejaVuSans-Bold-20"
               transform="scale(0.015625)"
               d="" />
            <path
               id="DejaVuSans-Bold-79"
               d="m 78,3500 h 1119 l 941,-2375 800,2375 H 4056 L 2584,-331 q -221,-585 -517,-817 -295,-233 -779,-233 H 641 v 734 h 350 q 284,0 413,91 130,90 202,325 l 32,97 z"
               transform="scale(0.015625)" />
            <path
               id="DejaVuSans-Bold-73"
               d="m 3272,3391 v -850 q -359,150 -694,225 -334,75 -631,75 -319,0 -474,-80 -154,-80 -154,-245 0,-135 117,-207 117,-71 420,-106 l 197,-28 q 860,-109 1156,-359 297,-250 297,-785 0,-559 -413,-841 -412,-281 -1230,-281 -347,0 -718,55 -370,55 -761,164 v 850 q 335,-162 686,-244 352,-81 714,-81 329,0 494,90 166,91 166,270 0,150 -114,223 -114,73 -455,114 l -197,25 q -747,94 -1047,347 -300,253 -300,769 0,556 381,824 382,269 1169,269 310,0 650,-47 341,-46 741,-146 z"
               transform="scale(0.015625)" />
            <path
               id="DejaVuSans-Bold-3a"
               d="M 716,3500 H 1844 V 2291 H 716 Z m 0,-2291 H 1844 V 0 H 716 Z"
               transform="scale(0.015625)" />
            <path
               id="DejaVuSans-Bold-50"
               d="m 588,4666 h 1996 q 891,0 1367,-396 477,-395 477,-1126 0,-735 -477,-1130 -476,-395 -1367,-395 H 1791 V 0 H 588 Z M 1791,3794 V 2491 h 665 q 350,0 541,170 191,170 191,483 0,312 -191,481 -191,169 -541,169 z"
               transform="scale(0.015625)" />
            <path
               id="DejaVuSans-Bold-65"
               d="M 4031,1759 V 1441 H 1416 q 40,-394 284,-591 244,-197 681,-197 353,0 723,105 371,105 762,317 V 213 Q 3469,63 3072,-14 2675,-91 2278,-91 1328,-91 801,392 275,875 275,1747 q 0,856 517,1346 517,491 1424,491 825,0 1320,-497 495,-496 495,-1328 z m -1150,372 q 0,319 -186,514 -186,196 -486,196 -325,0 -528,-183 -203,-183 -253,-527 z"
               transform="scale(0.015625)" />
            <path
               id="DejaVuSans-Bold-66"
               d="m 2841,4863 v -735 h -619 q -238,0 -332,-86 -93,-86 -93,-298 v -244 h 956 V 2700 H 1797 V 0 H 678 V 2700 H 122 v 800 h 556 v 244 q 0,572 319,845 319,274 987,274 z"
               transform="scale(0.015625)" />
            <path
               id="DejaVuSans-Bold-63"
               d="m 3366,3391 v -913 q -228,156 -458,231 -230,75 -477,75 -468,0 -729,-273 -261,-273 -261,-764 0,-491 261,-765 261,-273 729,-273 263,0 499,78 236,79 436,232 V 103 Q 3103,6 2833,-42 2563,-91 2291,-91 1344,-91 809,395 275,881 275,1747 q 0,866 534,1351 535,486 1482,486 275,0 542,-48 267,-48 533,-145 z"
               transform="scale(0.015625)" />
            <path
               id="DejaVuSans-Bold-70"
               d="M 1656,506 V -1331 H 538 v 4831 h 1118 v -512 q 232,306 513,451 281,145 647,145 647,0 1062,-514 416,-514 416,-1323 0,-809 -416,-1324 -415,-514 -1062,-514 -366,0 -647,145 -281,146 -513,452 z m 744,2266 q -359,0 -552,-264 -192,-264 -192,-761 0,-497 192,-761 193,-264 552,-264 359,0 548,262 190,263 190,763 0,500 -190,762 -189,263 -548,263 z"
               transform="scale(0.015625)" />
          </defs>
          <use
             xlink:href="#DejaVuSans-Bold-41"
             id="use227" />
          <use
             xlink:href="#DejaVuSans-Bold-62"
             x="77.392578"
             id="use229" />
          <use
             xlink:href="#DejaVuSans-Bold-6c"
             x="148.97461"
             id="use231" />
          <use
             xlink:href="#DejaVuSans-Bold-61"
             x="183.25195"
             id="use233" />
          <use
             xlink:href="#DejaVuSans-Bold-74"
             x="250.73242"
             id="use235" />
          <use
             xlink:href="#DejaVuSans-Bold-69"
             x="298.53516"
             id="use237" />
          <use
             xlink:href="#DejaVuSans-Bold-6f"
             x="332.8125"
             id="use239" />
          <use
             xlink:href="#DejaVuSans-Bold-6e"
             x="401.51367"
             id="use241" />
          <use
             xlink:href="#DejaVuSans-Bold-20"
             x="472.70508"
             id="use243" />
          <use
             xlink:href="#DejaVuSans-Bold-41"
             x="507.51953"
             id="use245" />
          <use
             xlink:href="#DejaVuSans-Bold-6e"
             x="584.91211"
             id="use247" />
          <use
             xlink:href="#DejaVuSans-Bold-61"
             x="656.10352"
             id="use249" />
          <use
             xlink:href="#DejaVuSans-Bold-6c"
             x="723.58398"
             id="use251" />
          <use
             xlink:href="#DejaVuSans-Bold-79"
             x="757.86133"
             id="use253" />
          <use
             xlink:href="#DejaVuSans-Bold-73"
             x="823.04688"
             id="use255" />
          <use
             xlink:href="#DejaVuSans-Bold-69"
             x="882.56836"
             id="use257" />
          <use
             xlink:href="#DejaVuSans-Bold-73"
             x="916.8457"
             id="use259" />
          <use
             xlink:href="#DejaVuSans-Bold-3a"
             x="976.36719"
             id="use261" />
          <use
             xlink:href="#DejaVuSans-Bold-20"
             x="1016.3574"
             id="use263" />
          <use
             xlink:href="#DejaVuSans-Bold-50"
             x="1051.1719"
             id="use265" />
          <use
             xlink:href="#DejaVuSans-Bold-65"
             x="1124.4629"
             id="use267" />
          <use
             xlink:href="#DejaVuSans-Bold-72"
             x="1192.2852"
             id="use269" />
          <use
             xlink:href="#DejaVuSans-Bold-66"
             x="1241.6016"
             id="use271" />
          <use
             xlink:href="#DejaVuSans-Bold-6f"
             x="1285.1074"
             id="use273" />
          <use
             xlink:href="#DejaVuSans-Bold-72"
             x="1353.8086"
             id="use275" />
          <use
             xlink:href="#DejaVuSans-Bold-6d"
             x="1403.125"
             id="use277" />
          <use
             xlink:href="#DejaVuSans-Bold-61"
             x="1507.3242"
             id="use279" />
          <use
             xlink:href="#DejaVuSans-Bold-6e"
             x="1574.8047"
             id="use281" />
          <use
             xlink:href="#DejaVuSans-Bold-63"
             x="1645.9961"
             id="use283" />
          <use
             xlink:href="#DejaVuSans-Bold-65"
             x="1705.2734"
             id="use285" />
          <use
             xlink:href="#DejaVuSans-Bold-20"
             x="1773.0957"
             id="use287" />
          <use
             xlink:href="#DejaVuSans-Bold-49"
             x="1807.9102"
             id="use289" />
          <use
             xlink:href="#DejaVuSans-Bold-6d"
             x="1845.1172"
             id="use291" />
          <use
             xlink:href="#DejaVuSans-Bold-70"
             x="1949.3164"
             id="use293" />
          <use
             xlink:href="#DejaVuSans-Bold-61"
             x="2020.8984"
             id="use295" />
          <use
             xlink:href="#DejaVuSans-Bold-63"
             x="2088.3789"
             id="use297" />
          <use
             xlink:href="#DejaVuSans-Bold-74"
             x="2147.6562"
             id="use299" />
        </g>
      </g>
      <g
         id="legend_1"
         transform="matrix(1.5957982,0,0,1.5957982,-193.44792,-138.35423)">
        <g
           id="line2d_11">
          <path
             d="m 175.73156,567.20102 h 12 12"
             style="fill:none;stroke:#ff3f3f;stroke-width:2.5;stroke-linecap:square"
             id="path304" />
        </g>
        <g
           id="text_11">
          <!-- Baseline -->
          <g
             style="fill:#ffffff"
             transform="matrix(0.12,0,0,-0.12,209.33156,571.40102)"
             id="g332">
            <defs
               id="defs314">
              <path
                 id="DejaVuSans-42"
                 d="M 1259,2228 V 519 h 1013 q 509,0 754,211 246,211 246,645 0,438 -246,645 -245,208 -754,208 z m 0,1919 V 2741 h 935 q 462,0 688,173 227,174 227,530 0,353 -227,528 -226,175 -688,175 z m -631,519 h 1613 q 722,0 1112,-300 391,-300 391,-853 0,-429 -200,-682 -200,-253 -588,-315 466,-100 724,-418 258,-317 258,-792 0,-625 -425,-966 Q 3088,0 2303,0 H 628 Z"
                 transform="scale(0.015625)" />
              <path
                 id="DejaVuSans-61"
                 d="m 2194,1759 q -697,0 -966,-159 -269,-159 -269,-544 0,-306 202,-486 202,-179 548,-179 479,0 768,339 289,339 289,901 v 128 z m 1147,238 V 0 H 2766 V 531 Q 2569,213 2275,61 1981,-91 1556,-91 q -537,0 -855,302 -317,302 -317,808 0,590 395,890 396,300 1180,300 h 807 v 57 q 0,397 -261,614 -261,217 -733,217 -300,0 -585,-72 -284,-72 -546,-216 v 532 q 315,122 612,182 297,61 578,61 760,0 1135,-394 375,-393 375,-1193 z"
                 transform="scale(0.015625)" />
              <path
                 id="DejaVuSans-73"
                 d="m 2834,3397 v -544 q -243,125 -506,187 -262,63 -544,63 -428,0 -642,-131 -214,-131 -214,-394 0,-200 153,-314 153,-114 616,-217 l 197,-44 q 612,-131 870,-370 258,-239 258,-667 0,-488 -386,-773 Q 2250,-91 1575,-91 1294,-91 989,-36 684,19 347,128 v 594 q 319,-166 628,-249 309,-82 613,-82 406,0 624,139 219,139 219,392 0,234 -158,359 -157,125 -692,241 l -200,47 q -534,112 -772,345 -237,233 -237,639 0,494 350,762 350,269 994,269 318,0 599,-47 282,-46 519,-140 z"
                 transform="scale(0.015625)" />
              <path
                 id="DejaVuSans-65"
                 d="M 3597,1894 V 1613 H 953 q 38,-594 358,-905 320,-311 892,-311 331,0 642,81 311,81 618,244 V 178 Q 3153,47 2828,-22 2503,-91 2169,-91 1331,-91 842,396 353,884 353,1716 q 0,859 464,1363 464,505 1252,505 706,0 1117,-455 411,-454 411,-1235 z m -575,169 q -6,471 -264,752 -258,282 -683,282 -481,0 -770,-272 -289,-272 -333,-766 z"
                 transform="scale(0.015625)" />
              <path
                 id="DejaVuSans-6c"
                 d="m 603,4863 h 575 V 0 H 603 Z"
                 transform="scale(0.015625)" />
              <path
                 id="DejaVuSans-69"
                 d="m 603,3500 h 575 V 0 H 603 Z m 0,1363 h 575 V 4134 H 603 Z"
                 transform="scale(0.015625)" />
              <path
                 id="DejaVuSans-6e"
                 d="M 3513,2113 V 0 h -575 v 2094 q 0,497 -194,743 -194,247 -581,247 -466,0 -735,-297 -269,-296 -269,-809 V 0 H 581 v 3500 h 578 v -544 q 207,316 486,472 280,156 646,156 603,0 912,-373 310,-373 310,-1098 z"
                 transform="scale(0.015625)" />
            </defs>
            <use
               xlink:href="#DejaVuSans-42"
               id="use316"
               x="0"
               y="0"
               width="100%"
               height="100%" />
            <use
               xlink:href="#DejaVuSans-61"
               x="68.603516"
               id="use318"
               y="0"
               width="100%"
               height="100%" />
            <use
               xlink:href="#DejaVuSans-73"
               x="129.88281"
               id="use320"
               y="0"
               width="100%"
               height="100%" />
            <use
               xlink:href="#DejaVuSans-65"
               x="181.98242"
               id="use322"
               y="0"
               width="100%"
               height="100%" />
            <use
               xlink:href="#DejaVuSans-6c"
               x="243.50586"
               id="use324"
               y="0"
               width="100%"
               height="100%" />
            <use
               xlink:href="#DejaVuSans-69"
               x="271.28906"
               id="use326"
               y="0"
               width="100%"
               height="100%" />
            <use
               xlink:href="#DejaVuSans-6e"
               x="299.07227"
               id="use328"
               y="0"
               width="100%"
               height="100%" />
            <use
               xlink:href="#DejaVuSans-65"
               x="362.45117"
               id="use330"
               y="0"
               width="100%"
               height="100%" />
          </g>
        </g>
        <g
           id="line2d_12">
          <path
             d="m 175.73156,584.81478 h 12 12"
             style="fill:none;stroke:#ffd700;stroke-width:2.5;stroke-linecap:square"
             id="path335" />
        </g>
        <g
           id="text_12">
          <!-- Attributes (A) -->
          <g
             style="fill:#ffffff"
             transform="matrix(0.12,0,0,-0.12,209.33156,589.01477)"
             id="g376">
            <defs
               id="defs346">
              <path
                 id="DejaVuSans-41"
                 d="M 2188,4044 1331,1722 h 1716 z m -357,622 h 716 L 4325,0 H 3669 L 3244,1197 H 1141 L 716,0 H 50 Z"
                 transform="scale(0.015625)" />
              <path
                 id="DejaVuSans-74"
                 d="M 1172,4494 V 3500 H 2356 V 3053 H 1172 V 1153 q 0,-428 117,-550 117,-122 477,-122 h 590 V 0 H 1766 Q 1100,0 847,248 594,497 594,1153 V 3053 H 172 v 447 h 422 v 994 z"
                 transform="scale(0.015625)" />
              <path
                 id="DejaVuSans-72"
                 d="m 2631,2963 q -97,56 -211,82 -114,27 -251,27 -488,0 -749,-317 -261,-317 -261,-911 V 0 H 581 v 3500 h 578 v -544 q 182,319 472,473 291,155 707,155 59,0 131,-8 72,-7 159,-23 z"
                 transform="scale(0.015625)" />
              <path
                 id="DejaVuSans-62"
                 d="m 3116,1747 q 0,634 -261,995 -261,361 -717,361 -457,0 -718,-361 -261,-361 -261,-995 0,-634 261,-995 261,-361 718,-361 456,0 717,361 261,361 261,995 z M 1159,2969 q 182,312 458,463 277,152 661,152 638,0 1036,-506 399,-506 399,-1331 Q 3713,922 3314,415 2916,-91 2278,-91 1894,-91 1617,61 1341,213 1159,525 V 0 H 581 v 4863 h 578 z"
                 transform="scale(0.015625)" />
              <path
                 id="DejaVuSans-75"
                 d="m 544,1381 v 2119 h 575 V 1403 q 0,-497 193,-746 194,-248 582,-248 465,0 735,297 271,297 271,810 v 1984 h 575 V 0 H 2900 V 538 Q 2691,219 2414,64 2138,-91 1772,-91 1169,-91 856,284 544,659 544,1381 Z m 1447,2203 z"
                 transform="scale(0.015625)" />
              <path
                 id="DejaVuSans-20"
                 transform="scale(0.015625)"
                 d="" />
              <path
                 id="DejaVuSans-28"
                 d="m 1984,4856 q -418,-718 -622,-1422 -203,-703 -203,-1425 0,-721 205,-1429 205,-708 620,-1424 h -500 q -468,735 -701,1444 -233,709 -233,1409 0,697 231,1403 232,707 703,1444 z"
                 transform="scale(0.015625)" />
              <path
                 id="DejaVuSans-29"
                 d="m 513,4856 h 500 q 468,-737 701,-1444 233,-706 233,-1403 0,-700 -233,-1409 -233,-709 -701,-1444 H 513 q 415,716 620,1424 205,708 205,1429 0,722 -205,1425 -205,704 -620,1422 z"
                 transform="scale(0.015625)" />
            </defs>
            <use
               xlink:href="#DejaVuSans-41"
               id="use348"
               x="0"
               y="0"
               width="100%"
               height="100%" />
            <use
               xlink:href="#DejaVuSans-74"
               x="66.658203"
               id="use350"
               y="0"
               width="100%"
               height="100%" />
            <use
               xlink:href="#DejaVuSans-74"
               x="105.86719"
               id="use352"
               y="0"
               width="100%"
               height="100%" />
            <use
               xlink:href="#DejaVuSans-72"
               x="145.07617"
               id="use354"
               y="0"
               width="100%"
               height="100%" />
            <use
               xlink:href="#DejaVuSans-69"
               x="186.18945"
               id="use356"
               y="0"
               width="100%"
               height="100%" />
            <use
               xlink:href="#DejaVuSans-62"
               x="213.97266"
               id="use358"
               y="0"
               width="100%"
               height="100%" />
            <use
               xlink:href="#DejaVuSans-75"
               x="277.44922"
               id="use360"
               y="0"
               width="100%"
               height="100%" />
            <use
               xlink:href="#DejaVuSans-74"
               x="340.82812"
               id="use362"
               y="0"
               width="100%"
               height="100%" />
            <use
               xlink:href="#DejaVuSans-65"
               x="380.03711"
               id="use364"
               y="0"
               width="100%"
               height="100%" />
            <use
               xlink:href="#DejaVuSans-73"
               x="441.56055"
               id="use366"
               y="0"
               width="100%"
               height="100%" />
            <use
               xlink:href="#DejaVuSans-20"
               x="493.66016"
               id="use368"
               y="0"
               width="100%"
               height="100%" />
            <use
               xlink:href="#DejaVuSans-28"
               x="525.44727"
               id="use370"
               y="0"
               width="100%"
               height="100%" />
            <use
               xlink:href="#DejaVuSans-41"
               x="564.46094"
               id="use372"
               y="0"
               width="100%"
               height="100%" />
            <use
               xlink:href="#DejaVuSans-29"
               x="632.86914"
               id="use374"
               y="0"
               width="100%"
               height="100%" />
          </g>
        </g>
        <g
           id="line2d_13">
          <path
             d="m 313.95469,567.20102 h 12 12"
             style="fill:none;stroke:#00ff00;stroke-width:2.5;stroke-linecap:square"
             id="path379" />
        </g>
        <g
           id="text_13">
          <!-- Residual (R) -->
          <g
             style="fill:#ffffff"
             transform="matrix(0.12,0,0,-0.12,347.55469,571.40102)"
             id="g410">
            <defs
               id="defs384">
              <path
                 id="DejaVuSans-52"
                 d="m 2841,2188 q 203,-69 395,-294 192,-225 386,-619 L 4263,0 h -679 l -596,1197 q -232,469 -449,622 -217,153 -592,153 H 1259 V 0 H 628 v 4666 h 1425 q 800,0 1194,-335 394,-334 394,-1009 0,-441 -205,-732 -205,-290 -595,-402 z M 1259,4147 V 2491 h 794 q 456,0 689,211 233,211 233,620 0,409 -233,617 -233,208 -689,208 z"
                 transform="scale(0.015625)" />
              <path
                 id="DejaVuSans-64"
                 d="m 2906,2969 v 1894 h 575 V 0 H 2906 V 525 Q 2725,213 2448,61 2172,-91 1784,-91 1150,-91 751,415 353,922 353,1747 q 0,825 398,1331 399,506 1033,506 388,0 664,-152 277,-151 458,-463 z M 947,1747 q 0,-634 261,-995 261,-361 717,-361 456,0 718,361 263,361 263,995 0,634 -263,995 -262,361 -718,361 -456,0 -717,-361 -261,-361 -261,-995 z"
                 transform="scale(0.015625)" />
            </defs>
            <use
               xlink:href="#DejaVuSans-52"
               id="use386"
               x="0"
               y="0"
               width="100%"
               height="100%" />
            <use
               xlink:href="#DejaVuSans-65"
               x="64.982422"
               id="use388"
               y="0"
               width="100%"
               height="100%" />
            <use
               xlink:href="#DejaVuSans-73"
               x="126.50586"
               id="use390"
               y="0"
               width="100%"
               height="100%" />
            <use
               xlink:href="#DejaVuSans-69"
               x="178.60547"
               id="use392"
               y="0"
               width="100%"
               height="100%" />
            <use
               xlink:href="#DejaVuSans-64"
               x="206.38867"
               id="use394"
               y="0"
               width="100%"
               height="100%" />
            <use
               xlink:href="#DejaVuSans-75"
               x="269.86523"
               id="use396"
               y="0"
               width="100%"
               height="100%" />
            <use
               xlink:href="#DejaVuSans-61"
               x="333.24414"
               id="use398"
               y="0"
               width="100%"
               height="100%" />
            <use
               xlink:href="#DejaVuSans-6c"
               x="394.52344"
               id="use400"
               y="0"
               width="100%"
               height="100%" />
            <use
               xlink:href="#DejaVuSans-20"
               x="422.30664"
               id="use402"
               y="0"
               width="100%"
               height="100%" />
            <use
               xlink:href="#DejaVuSans-28"
               x="454.09375"
               id="use404"
               y="0"
               width="100%"
               height="100%" />
            <use
               xlink:href="#DejaVuSans-52"
               x="493.10742"
               id="use406"
               y="0"
               width="100%"
               height="100%" />
            <use
               xlink:href="#DejaVuSans-29"
               x="562.58984"
               id="use408"
               y="0"
               width="100%"
               height="100%" />
          </g>
        </g>
        <g
           id="line2d_14">
          <path
             d="m 313.95469,584.81478 h 12 12"
             style="fill:none;stroke:#00ffff;stroke-width:5;stroke-linecap:square"
             id="path413" />
        </g>
        <g
           id="text_14">
          <!-- RT-MAE (Full) -->
          <g
             style="fill:#ffffff"
             transform="matrix(0.12,0,0,-0.12,347.55469,589.01477)"
             id="g449">
            <defs
               id="defs421">
              <path
                 id="DejaVuSans-54"
                 d="M -19,4666 H 3928 V 4134 H 2272 V 0 H 1638 V 4134 H -19 Z"
                 transform="scale(0.015625)" />
              <path
                 id="DejaVuSans-2d"
                 d="M 313,2009 H 1997 V 1497 H 313 Z"
                 transform="scale(0.015625)" />
              <path
                 id="DejaVuSans-4d"
                 d="m 628,4666 h 941 L 2759,1491 3956,4666 h 941 V 0 H 4281 V 4097 L 3078,897 H 2444 L 1241,4097 V 0 H 628 Z"
                 transform="scale(0.015625)" />
              <path
                 id="DejaVuSans-45"
                 d="M 628,4666 H 3578 V 4134 H 1259 V 2753 H 3481 V 2222 H 1259 V 531 H 3634 V 0 H 628 Z"
                 transform="scale(0.015625)" />
              <path
                 id="DejaVuSans-46"
                 d="M 628,4666 H 3309 V 4134 H 1259 V 2759 H 3109 V 2228 H 1259 V 0 H 628 Z"
                 transform="scale(0.015625)" />
            </defs>
            <use
               xlink:href="#DejaVuSans-52"
               id="use423"
               x="0"
               y="0"
               width="100%"
               height="100%" />
            <use
               xlink:href="#DejaVuSans-54"
               x="62.232422"
               id="use425"
               y="0"
               width="100%"
               height="100%" />
            <use
               xlink:href="#DejaVuSans-2d"
               x="114.19141"
               id="use427"
               y="0"
               width="100%"
               height="100%" />
            <use
               xlink:href="#DejaVuSans-4d"
               x="150.27539"
               id="use429"
               y="0"
               width="100%"
               height="100%" />
            <use
               xlink:href="#DejaVuSans-41"
               x="236.55469"
               id="use431"
               y="0"
               width="100%"
               height="100%" />
            <use
               xlink:href="#DejaVuSans-45"
               x="304.96289"
               id="use433"
               y="0"
               width="100%"
               height="100%" />
            <use
               xlink:href="#DejaVuSans-20"
               x="368.14648"
               id="use435"
               y="0"
               width="100%"
               height="100%" />
            <use
               xlink:href="#DejaVuSans-28"
               x="399.93359"
               id="use437"
               y="0"
               width="100%"
               height="100%" />
            <use
               xlink:href="#DejaVuSans-46"
               x="438.94727"
               id="use439"
               y="0"
               width="100%"
               height="100%" />
            <use
               xlink:href="#DejaVuSans-75"
               x="490.9668"
               id="use441"
               y="0"
               width="100%"
               height="100%" />
            <use
               xlink:href="#DejaVuSans-6c"
               x="554.3457"
               id="use443"
               y="0"
               width="100%"
               height="100%" />
            <use
               xlink:href="#DejaVuSans-6c"
               x="582.12891"
               id="use445"
               y="0"
               width="100%"
               height="100%" />
            <use
               xlink:href="#DejaVuSans-29"
               x="609.91211"
               id="use447"
               y="0"
               width="100%"
               height="100%" />
          </g>
        </g>
      </g>
      <g
         id="line2d_15">
        <path
           d="M 300.5775,232.11131 399.29726,289.556 300.5775,383.16956 194.19845,289.556 300.5775,232.11131"
           clip-path="url(#pc876912fc7)"
           style="fill:none;stroke:#ff3f3f;stroke-width:2.5;stroke-linecap:square"
           id="path453" />
      </g>
      <g
         id="line2d_16">
        <path
           d="M 300.5775,127.85985 472.06052,289.556 300.5775,466.14522 128.24344,289.556 300.5775,127.85985"
           clip-path="url(#pc876912fc7)"
           style="fill:none;stroke:#ffd700;stroke-width:2.5;stroke-linecap:square"
           id="path456" />
      </g>
      <g
         id="line2d_17">
        <path
           d="M 300.5775,183.17695 429.93442,289.556 300.5775,408.70053 147.39167,289.556 300.5775,183.17695"
           clip-path="url(#pc876912fc7)"
           style="fill:none;stroke:#00ff00;stroke-width:2.5;stroke-linecap:square"
           id="path459" />
      </g>
      <g
         id="line2d_18">
        <path
           d="M 300.5775,115.09436 484.40049,289.556 300.5775,472.52796 104.84005,289.556 300.5775,115.09436"
           clip-path="url(#pc876912fc7)"
           style="fill:none;stroke:#00ffff;stroke-width:5;stroke-linecap:square"
           id="path462" />
      </g>
      <g
         id="PathCollection_1">
        <defs
           id="defs466">
          <path
             id="mc1a0ebbca9"
             d="m 0,3.872983 c 1.027127,0 2.012324,-0.408082 2.738613,-1.13437 C 3.464901,2.012324 3.872983,1.027127 3.872983,0 c 0,-1.027127 -0.408082,-2.012324 -1.13437,-2.738613 C 2.012324,-3.464901 1.027127,-3.872983 0,-3.872983 c -1.027127,0 -2.012324,0.408082 -2.738613,1.13437 -0.726288,0.726289 -1.13437,1.711486 -1.13437,2.738613 0,1.027127 0.408082,2.012324 1.13437,2.738613 C -2.012324,3.464901 -1.027127,3.872983 0,3.872983 Z"
             style="stroke:#ffffff;stroke-width:1.5" />
        </defs>
        <g
           clip-path="url(#pc876912fc7)"
           id="g478">
          <use
             xlink:href="#mc1a0ebbca9"
             x="300.57751"
             y="232.11131"
             style="fill:#ff3f3f;stroke:#ffffff;stroke-width:1.5"
             id="use468" />
          <use
             xlink:href="#mc1a0ebbca9"
             x="399.29724"
             y="289.556"
             style="fill:#ff3f3f;stroke:#ffffff;stroke-width:1.5"
             id="use470" />
          <use
             xlink:href="#mc1a0ebbca9"
             x="300.57751"
             y="383.16956"
             style="fill:#ff3f3f;stroke:#ffffff;stroke-width:1.5"
             id="use472" />
          <use
             xlink:href="#mc1a0ebbca9"
             x="194.19846"
             y="289.556"
             style="fill:#ff3f3f;stroke:#ffffff;stroke-width:1.5"
             id="use474" />
          <use
             xlink:href="#mc1a0ebbca9"
             x="300.57751"
             y="232.11131"
             style="fill:#ff3f3f;stroke:#ffffff;stroke-width:1.5"
             id="use476" />
        </g>
      </g>
      <g
         id="PathCollection_2">
        <defs
           id="defs482">
          <path
             id="mc6ef4ac2a0"
             d="m 0,3.872983 c 1.027127,0 2.012324,-0.408082 2.738613,-1.13437 C 3.464901,2.012324 3.872983,1.027127 3.872983,0 c 0,-1.027127 -0.408082,-2.012324 -1.13437,-2.738613 C 2.012324,-3.464901 1.027127,-3.872983 0,-3.872983 c -1.027127,0 -2.012324,0.408082 -2.738613,1.13437 -0.726288,0.726289 -1.13437,1.711486 -1.13437,2.738613 0,1.027127 0.408082,2.012324 1.13437,2.738613 C -2.012324,3.464901 -1.027127,3.872983 0,3.872983 Z"
             style="stroke:#ffffff;stroke-width:1.5" />
        </defs>
        <g
           clip-path="url(#pc876912fc7)"
           id="g494">
          <use
             xlink:href="#mc6ef4ac2a0"
             x="300.57751"
             y="127.85985"
             style="fill:#ffd700;stroke:#ffffff;stroke-width:1.5"
             id="use484" />
          <use
             xlink:href="#mc6ef4ac2a0"
             x="472.06052"
             y="289.556"
             style="fill:#ffd700;stroke:#ffffff;stroke-width:1.5"
             id="use486" />
          <use
             xlink:href="#mc6ef4ac2a0"
             x="300.57751"
             y="466.14523"
             style="fill:#ffd700;stroke:#ffffff;stroke-width:1.5"
             id="use488" />
          <use
             xlink:href="#mc6ef4ac2a0"
             x="128.24344"
             y="289.556"
             style="fill:#ffd700;stroke:#ffffff;stroke-width:1.5"
             id="use490" />
          <use
             xlink:href="#mc6ef4ac2a0"
             x="300.57751"
             y="127.85985"
             style="fill:#ffd700;stroke:#ffffff;stroke-width:1.5"
             id="use492" />
        </g>
      </g>
      <g
         id="PathCollection_3">
        <defs
           id="defs498">
          <path
             id="ma6e846ea11"
             d="m 0,3.872983 c 1.027127,0 2.012324,-0.408082 2.738613,-1.13437 C 3.464901,2.012324 3.872983,1.027127 3.872983,0 c 0,-1.027127 -0.408082,-2.012324 -1.13437,-2.738613 C 2.012324,-3.464901 1.027127,-3.872983 0,-3.872983 c -1.027127,0 -2.012324,0.408082 -2.738613,1.13437 -0.726288,0.726289 -1.13437,1.711486 -1.13437,2.738613 0,1.027127 0.408082,2.012324 1.13437,2.738613 C -2.012324,3.464901 -1.027127,3.872983 0,3.872983 Z"
             style="stroke:#ffffff;stroke-width:1.5" />
        </defs>
        <g
           clip-path="url(#pc876912fc7)"
           id="g510">
          <use
             xlink:href="#ma6e846ea11"
             x="300.57751"
             y="183.17696"
             style="fill:#00ff00;stroke:#ffffff;stroke-width:1.5"
             id="use500" />
          <use
             xlink:href="#ma6e846ea11"
             x="429.93442"
             y="289.556"
             style="fill:#00ff00;stroke:#ffffff;stroke-width:1.5"
             id="use502" />
          <use
             xlink:href="#ma6e846ea11"
             x="300.57751"
             y="408.70053"
             style="fill:#00ff00;stroke:#ffffff;stroke-width:1.5"
             id="use504" />
          <use
             xlink:href="#ma6e846ea11"
             x="147.39168"
             y="289.556"
             style="fill:#00ff00;stroke:#ffffff;stroke-width:1.5"
             id="use506" />
          <use
             xlink:href="#ma6e846ea11"
             x="300.57751"
             y="183.17696"
             style="fill:#00ff00;stroke:#ffffff;stroke-width:1.5"
             id="use508" />
        </g>
      </g>
      <g
         id="PathCollection_4">
        <defs
           id="defs514">
          <path
             id="m7a77ef285a"
             d="m 0,5.477226 c 1.452577,0 2.845856,-0.577115 3.872983,-1.604243 C 4.900111,2.845856 5.477226,1.452577 5.477226,0 c 0,-1.452577 -0.577115,-2.845856 -1.604243,-3.872983 C 2.845856,-4.900111 1.452577,-5.477226 0,-5.477226 c -1.452577,0 -2.845856,0.577115 -3.872983,1.604243 C -4.900111,-2.845856 -5.477226,-1.452577 -5.477226,0 c 0,1.452577 0.577115,2.845856 1.604243,3.872983 C -2.845856,4.900111 -1.452577,5.477226 0,5.477226 Z"
             style="stroke:#ffffff;stroke-width:1.5" />
        </defs>
        <g
           clip-path="url(#pc876912fc7)"
           id="g526">
          <use
             xlink:href="#m7a77ef285a"
             x="300.57751"
             y="115.09436"
             style="fill:#00ffff;stroke:#ffffff;stroke-width:1.5"
             id="use516" />
          <use
             xlink:href="#m7a77ef285a"
             x="484.40048"
             y="289.556"
             style="fill:#00ffff;stroke:#ffffff;stroke-width:1.5"
             id="use518" />
          <use
             xlink:href="#m7a77ef285a"
             x="300.57751"
             y="472.52795"
             style="fill:#00ffff;stroke:#ffffff;stroke-width:1.5"
             id="use520" />
          <use
             xlink:href="#m7a77ef285a"
             x="104.84005"
             y="289.556"
             style="fill:#00ffff;stroke:#ffffff;stroke-width:1.5"
             id="use522" />
          <use
             xlink:href="#m7a77ef285a"
             x="300.57751"
             y="115.09436"
             style="fill:#00ffff;stroke:#ffffff;stroke-width:1.5"
             id="use524" />
        </g>
      </g>
    </g>
  </g>
  <defs
     id="defs534">
    <clipPath
       id="pc876912fc7">
      <path
         d="m 523.9735,289.556 c 0,-29.33609 -5.77857,-58.38693 -17.00501,-85.48995 C 495.74205,176.96303 479.28608,152.33492 458.54233,131.59117 437.79858,110.84742 413.17046,94.391445 386.06745,83.165008 358.96443,71.938571 329.91359,66.16 300.5775,66.16 c -29.33609,0 -58.38693,5.778571 -85.48995,17.005008 -27.10302,11.226437 -51.73113,27.682412 -72.47488,48.426162 -20.74375,20.74375 -37.19973,45.37186 -48.426162,72.47488 C 82.960071,231.16907 77.1815,260.21991 77.1815,289.556 c 0,29.33609 5.778571,58.38693 17.005008,85.48995 11.226432,27.10301 27.682412,51.73113 48.426162,72.47488 20.74375,20.74375 45.37186,37.19972 72.47488,48.42616 27.10302,11.22644 56.15386,17.00501 85.48995,17.00501 29.33609,0 58.38693,-5.77857 85.48995,-17.00501 27.10301,-11.22644 51.73113,-27.68241 72.47488,-48.42616 20.74375,-20.74375 37.19972,-45.37187 48.42616,-72.47488 11.22644,-27.10302 17.00501,-56.15386 17.00501,-85.48995 m -223.396,0 c 0,0 0,0 0,0 0,0 0,0 0,0 0,0 0,0 0,0 0,0 0,0 0,0 0,0 0,0 0,0 0,0 0,0 0,0 0,0 0,0 0,0 0,0 0,0 0,0 0,0 0,0 0,0 0,0 0,0 0,0 0,0 0,0 0,0 0,0 0,0 0,0 0,0 0,0 0,0 0,0 0,0 0,0 0,0 0,0 0,0 z"
         id="path531" />
    </clipPath>
  </defs>
</svg>
