<?xml version="1.0" encoding="UTF-8" standalone="no"?>
<!-- Created with Inkscape (http://www.inkscape.org/) -->

<svg
   width="140.69167mm"
   height="15.93992mm"
   viewBox="0 0 140.69167 15.93992"
   version="1.1"
   id="svg1"
   inkscape:version="1.3.2 (091e20ef0f, 2023-11-25)"
   sodipodi:docname="legend.svg"
   xmlns:inkscape="http://www.inkscape.org/namespaces/inkscape"
   xmlns:sodipodi="http://sodipodi.sourceforge.net/DTD/sodipodi-0.dtd"
   xmlns:xlink="http://www.w3.org/1999/xlink"
   xmlns="http://www.w3.org/2000/svg"
   xmlns:svg="http://www.w3.org/2000/svg">
  <sodipodi:namedview
     id="namedview1"
     pagecolor="#ffffff"
     bordercolor="#000000"
     borderopacity="0.25"
     inkscape:showpageshadow="2"
     inkscape:pageopacity="0.0"
     inkscape:pagecheckerboard="0"
     inkscape:deskcolor="#d1d1d1"
     inkscape:document-units="mm"
     inkscape:zoom="0.94252245"
     inkscape:cx="277.44697"
     inkscape:cy="187.26344"
     inkscape:window-width="1536"
     inkscape:window-height="727"
     inkscape:window-x="0"
     inkscape:window-y="32"
     inkscape:window-maximized="1"
     inkscape:current-layer="legend_1" />
  <defs
     id="defs1">
    <path
       id="DejaVuSans-42"
       d="M 1259,2228 V 519 h 1013 q 509,0 754,211 246,211 246,645 0,438 -246,645 -245,208 -754,208 z m 0,1919 V 2741 h 935 q 462,0 688,173 227,174 227,530 0,353 -227,528 -226,175 -688,175 z m -631,519 h 1613 q 722,0 1112,-300 391,-300 391,-853 0,-429 -200,-682 -200,-253 -588,-315 466,-100 724,-418 258,-317 258,-792 0,-625 -425,-966 Q 3088,0 2303,0 H 628 Z"
       transform="scale(0.015625)" />
    <path
       id="DejaVuSans-61"
       d="m 2194,1759 q -697,0 -966,-159 -269,-159 -269,-544 0,-306 202,-486 202,-179 548,-179 479,0 768,339 289,339 289,901 v 128 z m 1147,238 V 0 H 2766 V 531 Q 2569,213 2275,61 1981,-91 1556,-91 q -537,0 -855,302 -317,302 -317,808 0,590 395,890 396,300 1180,300 h 807 v 57 q 0,397 -261,614 -261,217 -733,217 -300,0 -585,-72 -284,-72 -546,-216 v 532 q 315,122 612,182 297,61 578,61 760,0 1135,-394 375,-393 375,-1193 z"
       transform="scale(0.015625)" />
    <path
       id="DejaVuSans-73"
       d="m 2834,3397 v -544 q -243,125 -506,187 -262,63 -544,63 -428,0 -642,-131 -214,-131 -214,-394 0,-200 153,-314 153,-114 616,-217 l 197,-44 q 612,-131 870,-370 258,-239 258,-667 0,-488 -386,-773 Q 2250,-91 1575,-91 1294,-91 989,-36 684,19 347,128 v 594 q 319,-166 628,-249 309,-82 613,-82 406,0 624,139 219,139 219,392 0,234 -158,359 -157,125 -692,241 l -200,47 q -534,112 -772,345 -237,233 -237,639 0,494 350,762 350,269 994,269 318,0 599,-47 282,-46 519,-140 z"
       transform="scale(0.015625)" />
    <path
       id="DejaVuSans-65"
       d="M 3597,1894 V 1613 H 953 q 38,-594 358,-905 320,-311 892,-311 331,0 642,81 311,81 618,244 V 178 Q 3153,47 2828,-22 2503,-91 2169,-91 1331,-91 842,396 353,884 353,1716 q 0,859 464,1363 464,505 1252,505 706,0 1117,-455 411,-454 411,-1235 z m -575,169 q -6,471 -264,752 -258,282 -683,282 -481,0 -770,-272 -289,-272 -333,-766 z"
       transform="scale(0.015625)" />
    <path
       id="DejaVuSans-6c"
       d="m 603,4863 h 575 V 0 H 603 Z"
       transform="scale(0.015625)" />
    <path
       id="DejaVuSans-69"
       d="m 603,3500 h 575 V 0 H 603 Z m 0,1363 h 575 V 4134 H 603 Z"
       transform="scale(0.015625)" />
    <path
       id="DejaVuSans-6e"
       d="M 3513,2113 V 0 h -575 v 2094 q 0,497 -194,743 -194,247 -581,247 -466,0 -735,-297 -269,-296 -269,-809 V 0 H 581 v 3500 h 578 v -544 q 207,316 486,472 280,156 646,156 603,0 912,-373 310,-373 310,-1098 z"
       transform="scale(0.015625)" />
    <path
       id="DejaVuSans-41"
       d="M 2188,4044 1331,1722 h 1716 z m -357,622 h 716 L 4325,0 H 3669 L 3244,1197 H 1141 L 716,0 H 50 Z"
       transform="scale(0.015625)" />
    <path
       id="DejaVuSans-74"
       d="M 1172,4494 V 3500 H 2356 V 3053 H 1172 V 1153 q 0,-428 117,-550 117,-122 477,-122 h 590 V 0 H 1766 Q 1100,0 847,248 594,497 594,1153 V 3053 H 172 v 447 h 422 v 994 z"
       transform="scale(0.015625)" />
    <path
       id="DejaVuSans-72"
       d="m 2631,2963 q -97,56 -211,82 -114,27 -251,27 -488,0 -749,-317 -261,-317 -261,-911 V 0 H 581 v 3500 h 578 v -544 q 182,319 472,473 291,155 707,155 59,0 131,-8 72,-7 159,-23 z"
       transform="scale(0.015625)" />
    <path
       id="DejaVuSans-62"
       d="m 3116,1747 q 0,634 -261,995 -261,361 -717,361 -457,0 -718,-361 -261,-361 -261,-995 0,-634 261,-995 261,-361 718,-361 456,0 717,361 261,361 261,995 z M 1159,2969 q 182,312 458,463 277,152 661,152 638,0 1036,-506 399,-506 399,-1331 Q 3713,922 3314,415 2916,-91 2278,-91 1894,-91 1617,61 1341,213 1159,525 V 0 H 581 v 4863 h 578 z"
       transform="scale(0.015625)" />
    <path
       id="DejaVuSans-75"
       d="m 544,1381 v 2119 h 575 V 1403 q 0,-497 193,-746 194,-248 582,-248 465,0 735,297 271,297 271,810 v 1984 h 575 V 0 H 2900 V 538 Q 2691,219 2414,64 2138,-91 1772,-91 1169,-91 856,284 544,659 544,1381 Z m 1447,2203 z"
       transform="scale(0.015625)" />
    <path
       id="DejaVuSans-20"
       transform="scale(0.015625)"
       d="" />
    <path
       id="DejaVuSans-28"
       d="m 1984,4856 q -418,-718 -622,-1422 -203,-703 -203,-1425 0,-721 205,-1429 205,-708 620,-1424 h -500 q -468,735 -701,1444 -233,709 -233,1409 0,697 231,1403 232,707 703,1444 z"
       transform="scale(0.015625)" />
    <path
       id="DejaVuSans-29"
       d="m 513,4856 h 500 q 468,-737 701,-1444 233,-706 233,-1403 0,-700 -233,-1409 -233,-709 -701,-1444 H 513 q 415,716 620,1424 205,708 205,1429 0,722 -205,1425 -205,704 -620,1422 z"
       transform="scale(0.015625)" />
    <path
       id="DejaVuSans-52"
       d="m 2841,2188 q 203,-69 395,-294 192,-225 386,-619 L 4263,0 h -679 l -596,1197 q -232,469 -449,622 -217,153 -592,153 H 1259 V 0 H 628 v 4666 h 1425 q 800,0 1194,-335 394,-334 394,-1009 0,-441 -205,-732 -205,-290 -595,-402 z M 1259,4147 V 2491 h 794 q 456,0 689,211 233,211 233,620 0,409 -233,617 -233,208 -689,208 z"
       transform="scale(0.015625)" />
    <path
       id="DejaVuSans-64"
       d="m 2906,2969 v 1894 h 575 V 0 H 2906 V 525 Q 2725,213 2448,61 2172,-91 1784,-91 1150,-91 751,415 353,922 353,1747 q 0,825 398,1331 399,506 1033,506 388,0 664,-152 277,-151 458,-463 z M 947,1747 q 0,-634 261,-995 261,-361 717,-361 456,0 718,361 263,361 263,995 0,634 -263,995 -262,361 -718,361 -456,0 -717,-361 -261,-361 -261,-995 z"
       transform="scale(0.015625)" />
    <path
       id="DejaVuSans-54"
       d="M -19,4666 H 3928 V 4134 H 2272 V 0 H 1638 V 4134 H -19 Z"
       transform="scale(0.015625)" />
    <path
       id="DejaVuSans-2d"
       d="M 313,2009 H 1997 V 1497 H 313 Z"
       transform="scale(0.015625)" />
    <path
       id="DejaVuSans-4d"
       d="m 628,4666 h 941 L 2759,1491 3956,4666 h 941 V 0 H 4281 V 4097 L 3078,897 H 2444 L 1241,4097 V 0 H 628 Z"
       transform="scale(0.015625)" />
    <path
       id="DejaVuSans-45"
       d="M 628,4666 H 3578 V 4134 H 1259 V 2753 H 3481 V 2222 H 1259 V 531 H 3634 V 0 H 628 Z"
       transform="scale(0.015625)" />
    <path
       id="DejaVuSans-46"
       d="M 628,4666 H 3309 V 4134 H 1259 V 2759 H 3109 V 2228 H 1259 V 0 H 628 Z"
       transform="scale(0.015625)" />
  </defs>
  <g
     inkscape:label="Layer 1"
     inkscape:groupmode="layer"
     id="layer1"
     transform="translate(-23.054943,-99.181366)">
    <g
       id="legend_1"
       transform="matrix(0.56296213,0,0,0.56296213,-75.171568,-217.36261)"
       style="fill:#000000;fill-opacity:1;stroke-linecap:butt;stroke-linejoin:round">
      <g
         id="line2d_11"
         style="fill:#000000;fill-opacity:1;stroke-linecap:butt;stroke-linejoin:round">
        <path
           d="m 175.73156,567.20102 h 12 12"
           style="fill:#000000;fill-opacity:1;stroke:#ff3f3f;stroke-width:2.5;stroke-linecap:square;stroke-linejoin:round"
           id="path304" />
      </g>
      <g
         id="line2d_12"
         style="fill:#000000;fill-opacity:1;stroke-linecap:butt;stroke-linejoin:round">
        <path
           d="m 175.73156,584.81478 h 12 12"
           style="fill:#000000;fill-opacity:1;stroke:#ffd700;stroke-width:2.5;stroke-linecap:square;stroke-linejoin:round"
           id="path335" />
      </g>
      <g
         id="text_12"
         style="fill:#000000;fill-opacity:1;stroke-linecap:butt;stroke-linejoin:round">
        <!-- Attributes (A) -->
        <g
           style="fill:#000000;fill-opacity:1;stroke-linecap:butt;stroke-linejoin:round"
           transform="matrix(0.12,0,0,-0.12,209.33156,589.01477)"
           id="g376">
          <defs
             id="defs346">
            <path
               id="path8"
               d="M 2188,4044 1331,1722 h 1716 z m -357,622 h 716 L 4325,0 H 3669 L 3244,1197 H 1141 L 716,0 H 50 Z"
               transform="scale(0.015625)" />
            <path
               id="path9"
               d="M 1172,4494 V 3500 H 2356 V 3053 H 1172 V 1153 q 0,-428 117,-550 117,-122 477,-122 h 590 V 0 H 1766 Q 1100,0 847,248 594,497 594,1153 V 3053 H 172 v 447 h 422 v 994 z"
               transform="scale(0.015625)" />
            <path
               id="path10"
               d="m 2631,2963 q -97,56 -211,82 -114,27 -251,27 -488,0 -749,-317 -261,-317 -261,-911 V 0 H 581 v 3500 h 578 v -544 q 182,319 472,473 291,155 707,155 59,0 131,-8 72,-7 159,-23 z"
               transform="scale(0.015625)" />
            <path
               id="path11"
               d="m 3116,1747 q 0,634 -261,995 -261,361 -717,361 -457,0 -718,-361 -261,-361 -261,-995 0,-634 261,-995 261,-361 718,-361 456,0 717,361 261,361 261,995 z M 1159,2969 q 182,312 458,463 277,152 661,152 638,0 1036,-506 399,-506 399,-1331 Q 3713,922 3314,415 2916,-91 2278,-91 1894,-91 1617,61 1341,213 1159,525 V 0 H 581 v 4863 h 578 z"
               transform="scale(0.015625)" />
            <path
               id="path12"
               d="m 544,1381 v 2119 h 575 V 1403 q 0,-497 193,-746 194,-248 582,-248 465,0 735,297 271,297 271,810 v 1984 h 575 V 0 H 2900 V 538 Q 2691,219 2414,64 2138,-91 1772,-91 1169,-91 856,284 544,659 544,1381 Z m 1447,2203 z"
               transform="scale(0.015625)" />
            <path
               id="path13"
               transform="scale(0.015625)"
               d="" />
            <path
               id="path14"
               d="m 1984,4856 q -418,-718 -622,-1422 -203,-703 -203,-1425 0,-721 205,-1429 205,-708 620,-1424 h -500 q -468,735 -701,1444 -233,709 -233,1409 0,697 231,1403 232,707 703,1444 z"
               transform="scale(0.015625)" />
            <path
               id="path15"
               d="m 513,4856 h 500 q 468,-737 701,-1444 233,-706 233,-1403 0,-700 -233,-1409 -233,-709 -701,-1444 H 513 q 415,716 620,1424 205,708 205,1429 0,722 -205,1425 -205,704 -620,1422 z"
               transform="scale(0.015625)" />
          </defs>
          <use
             xlink:href="#DejaVuSans-41"
             id="use348"
             x="0"
             y="0"
             width="100%"
             height="100%"
             style="fill:#000000;fill-opacity:1;stroke-linecap:butt;stroke-linejoin:round" />
          <use
             xlink:href="#DejaVuSans-74"
             x="66.658203"
             id="use350"
             y="0"
             width="100%"
             height="100%"
             style="fill:#000000;fill-opacity:1;stroke-linecap:butt;stroke-linejoin:round" />
          <use
             xlink:href="#DejaVuSans-74"
             x="105.86719"
             id="use352"
             y="0"
             width="100%"
             height="100%"
             style="fill:#000000;fill-opacity:1;stroke-linecap:butt;stroke-linejoin:round" />
          <use
             xlink:href="#DejaVuSans-72"
             x="145.07617"
             id="use354"
             y="0"
             width="100%"
             height="100%"
             style="fill:#000000;fill-opacity:1;stroke-linecap:butt;stroke-linejoin:round" />
          <use
             xlink:href="#DejaVuSans-69"
             x="186.18945"
             id="use356"
             y="0"
             width="100%"
             height="100%"
             style="fill:#000000;fill-opacity:1;stroke-linecap:butt;stroke-linejoin:round" />
          <use
             xlink:href="#DejaVuSans-62"
             x="213.97266"
             id="use358"
             y="0"
             width="100%"
             height="100%"
             style="fill:#000000;fill-opacity:1;stroke-linecap:butt;stroke-linejoin:round" />
          <use
             xlink:href="#DejaVuSans-75"
             x="277.44922"
             id="use360"
             y="0"
             width="100%"
             height="100%"
             style="fill:#000000;fill-opacity:1;stroke-linecap:butt;stroke-linejoin:round" />
          <use
             xlink:href="#DejaVuSans-74"
             x="340.82812"
             id="use362"
             y="0"
             width="100%"
             height="100%"
             style="fill:#000000;fill-opacity:1;stroke-linecap:butt;stroke-linejoin:round" />
          <use
             xlink:href="#DejaVuSans-65"
             x="380.03711"
             id="use364"
             y="0"
             width="100%"
             height="100%"
             style="fill:#000000;fill-opacity:1;stroke-linecap:butt;stroke-linejoin:round" />
          <use
             xlink:href="#DejaVuSans-73"
             x="441.56055"
             id="use366"
             y="0"
             width="100%"
             height="100%"
             style="fill:#000000;fill-opacity:1;stroke-linecap:butt;stroke-linejoin:round" />
          <use
             xlink:href="#DejaVuSans-20"
             x="493.66016"
             id="use368"
             y="0"
             width="100%"
             height="100%"
             style="fill:#000000;fill-opacity:1;stroke-linecap:butt;stroke-linejoin:round" />
          <use
             xlink:href="#DejaVuSans-28"
             x="525.44727"
             id="use370"
             y="0"
             width="100%"
             height="100%"
             style="fill:#000000;fill-opacity:1;stroke-linecap:butt;stroke-linejoin:round" />
          <use
             xlink:href="#DejaVuSans-41"
             x="564.46094"
             id="use372"
             y="0"
             width="100%"
             height="100%"
             style="fill:#000000;fill-opacity:1;stroke-linecap:butt;stroke-linejoin:round" />
          <use
             xlink:href="#DejaVuSans-29"
             x="632.86914"
             id="use374"
             y="0"
             width="100%"
             height="100%"
             style="fill:#000000;fill-opacity:1;stroke-linecap:butt;stroke-linejoin:round" />
        </g>
      </g>
      <g
         id="line2d_13"
         style="fill:#000000;fill-opacity:1;stroke-linecap:butt;stroke-linejoin:round">
        <path
           d="m 313.95469,567.20102 h 12 12"
           style="fill:#000000;fill-opacity:1;stroke:#00ff00;stroke-width:2.5;stroke-linecap:square;stroke-linejoin:round"
           id="path379" />
      </g>
      <g
         id="text_13"
         style="fill:#000000;fill-opacity:1;stroke-linecap:butt;stroke-linejoin:round">
        <!-- Residual (R) -->
        <g
           style="fill:#000000;fill-opacity:1;stroke-linecap:butt;stroke-linejoin:round"
           transform="matrix(0.12,0,0,-0.12,347.55469,571.40102)"
           id="g410">
          <defs
             id="defs384">
            <path
               id="path16"
               d="m 2841,2188 q 203,-69 395,-294 192,-225 386,-619 L 4263,0 h -679 l -596,1197 q -232,469 -449,622 -217,153 -592,153 H 1259 V 0 H 628 v 4666 h 1425 q 800,0 1194,-335 394,-334 394,-1009 0,-441 -205,-732 -205,-290 -595,-402 z M 1259,4147 V 2491 h 794 q 456,0 689,211 233,211 233,620 0,409 -233,617 -233,208 -689,208 z"
               transform="scale(0.015625)" />
            <path
               id="path17"
               d="m 2906,2969 v 1894 h 575 V 0 H 2906 V 525 Q 2725,213 2448,61 2172,-91 1784,-91 1150,-91 751,415 353,922 353,1747 q 0,825 398,1331 399,506 1033,506 388,0 664,-152 277,-151 458,-463 z M 947,1747 q 0,-634 261,-995 261,-361 717,-361 456,0 718,361 263,361 263,995 0,634 -263,995 -262,361 -718,361 -456,0 -717,-361 -261,-361 -261,-995 z"
               transform="scale(0.015625)" />
          </defs>
          <use
             xlink:href="#DejaVuSans-52"
             id="use386"
             x="0"
             y="0"
             width="100%"
             height="100%"
             style="fill:#000000;fill-opacity:1;stroke-linecap:butt;stroke-linejoin:round" />
          <use
             xlink:href="#DejaVuSans-65"
             x="64.982422"
             id="use388"
             y="0"
             width="100%"
             height="100%"
             style="fill:#000000;fill-opacity:1;stroke-linecap:butt;stroke-linejoin:round" />
          <use
             xlink:href="#DejaVuSans-73"
             x="126.50586"
             id="use390"
             y="0"
             width="100%"
             height="100%"
             style="fill:#000000;fill-opacity:1;stroke-linecap:butt;stroke-linejoin:round" />
          <use
             xlink:href="#DejaVuSans-69"
             x="178.60547"
             id="use392"
             y="0"
             width="100%"
             height="100%"
             style="fill:#000000;fill-opacity:1;stroke-linecap:butt;stroke-linejoin:round" />
          <use
             xlink:href="#DejaVuSans-64"
             x="206.38867"
             id="use394"
             y="0"
             width="100%"
             height="100%"
             style="fill:#000000;fill-opacity:1;stroke-linecap:butt;stroke-linejoin:round" />
          <use
             xlink:href="#DejaVuSans-75"
             x="269.86523"
             id="use396"
             y="0"
             width="100%"
             height="100%"
             style="fill:#000000;fill-opacity:1;stroke-linecap:butt;stroke-linejoin:round" />
          <use
             xlink:href="#DejaVuSans-61"
             x="333.24414"
             id="use398"
             y="0"
             width="100%"
             height="100%"
             style="fill:#000000;fill-opacity:1;stroke-linecap:butt;stroke-linejoin:round" />
          <use
             xlink:href="#DejaVuSans-6c"
             x="394.52344"
             id="use400"
             y="0"
             width="100%"
             height="100%"
             style="fill:#000000;fill-opacity:1;stroke-linecap:butt;stroke-linejoin:round" />
          <use
             xlink:href="#DejaVuSans-20"
             x="422.30664"
             id="use402"
             y="0"
             width="100%"
             height="100%"
             style="fill:#000000;fill-opacity:1;stroke-linecap:butt;stroke-linejoin:round" />
          <use
             xlink:href="#DejaVuSans-28"
             x="454.09375"
             id="use404"
             y="0"
             width="100%"
             height="100%"
             style="fill:#000000;fill-opacity:1;stroke-linecap:butt;stroke-linejoin:round" />
          <use
             xlink:href="#DejaVuSans-52"
             x="493.10742"
             id="use406"
             y="0"
             width="100%"
             height="100%"
             style="fill:#000000;fill-opacity:1;stroke-linecap:butt;stroke-linejoin:round" />
          <use
             xlink:href="#DejaVuSans-29"
             x="562.58984"
             id="use408"
             y="0"
             width="100%"
             height="100%"
             style="fill:#000000;fill-opacity:1;stroke-linecap:butt;stroke-linejoin:round" />
        </g>
      </g>
      <g
         id="line2d_14"
         style="fill:#000000;fill-opacity:1;stroke-linecap:butt;stroke-linejoin:round">
        <path
           d="m 313.95469,584.81478 h 12 12"
           style="fill:#000000;fill-opacity:1;stroke:#00ffff;stroke-width:5;stroke-linecap:square;stroke-linejoin:round"
           id="path413" />
      </g>
      <g
         id="text_14"
         style="fill:#000000;fill-opacity:1;stroke-linecap:butt;stroke-linejoin:round">
        <!-- RT-MAE (Full) -->
        <g
           style="fill:#000000;fill-opacity:1;stroke-linecap:butt;stroke-linejoin:round"
           transform="matrix(0.12,0,0,-0.12,347.55469,589.01477)"
           id="g449">
          <defs
             id="defs421">
            <path
               id="path18"
               d="M -19,4666 H 3928 V 4134 H 2272 V 0 H 1638 V 4134 H -19 Z"
               transform="scale(0.015625)" />
            <path
               id="path19"
               d="M 313,2009 H 1997 V 1497 H 313 Z"
               transform="scale(0.015625)" />
            <path
               id="path20"
               d="m 628,4666 h 941 L 2759,1491 3956,4666 h 941 V 0 H 4281 V 4097 L 3078,897 H 2444 L 1241,4097 V 0 H 628 Z"
               transform="scale(0.015625)" />
            <path
               id="path21"
               d="M 628,4666 H 3578 V 4134 H 1259 V 2753 H 3481 V 2222 H 1259 V 531 H 3634 V 0 H 628 Z"
               transform="scale(0.015625)" />
            <path
               id="path22"
               d="M 628,4666 H 3309 V 4134 H 1259 V 2759 H 3109 V 2228 H 1259 V 0 H 628 Z"
               transform="scale(0.015625)" />
          </defs>
          <use
             xlink:href="#DejaVuSans-52"
             id="use423"
             x="0"
             y="0"
             width="100%"
             height="100%"
             style="fill:#000000;fill-opacity:1;stroke-linecap:butt;stroke-linejoin:round" />
          <use
             xlink:href="#DejaVuSans-54"
             x="62.232422"
             id="use425"
             y="0"
             width="100%"
             height="100%"
             style="fill:#000000;fill-opacity:1;stroke-linecap:butt;stroke-linejoin:round" />
          <use
             xlink:href="#DejaVuSans-2d"
             x="114.19141"
             id="use427"
             y="0"
             width="100%"
             height="100%"
             style="fill:#000000;fill-opacity:1;stroke-linecap:butt;stroke-linejoin:round" />
          <use
             xlink:href="#DejaVuSans-4d"
             x="150.27539"
             id="use429"
             y="0"
             width="100%"
             height="100%"
             style="fill:#000000;fill-opacity:1;stroke-linecap:butt;stroke-linejoin:round" />
          <use
             xlink:href="#DejaVuSans-41"
             x="236.55469"
             id="use431"
             y="0"
             width="100%"
             height="100%"
             style="fill:#000000;fill-opacity:1;stroke-linecap:butt;stroke-linejoin:round" />
          <use
             xlink:href="#DejaVuSans-45"
             x="304.96289"
             id="use433"
             y="0"
             width="100%"
             height="100%"
             style="fill:#000000;fill-opacity:1;stroke-linecap:butt;stroke-linejoin:round" />
          <use
             xlink:href="#DejaVuSans-20"
             x="368.14648"
             id="use435"
             y="0"
             width="100%"
             height="100%"
             style="fill:#000000;fill-opacity:1;stroke-linecap:butt;stroke-linejoin:round" />
          <use
             xlink:href="#DejaVuSans-28"
             x="399.93359"
             id="use437"
             y="0"
             width="100%"
             height="100%"
             style="fill:#000000;fill-opacity:1;stroke-linecap:butt;stroke-linejoin:round" />
          <use
             xlink:href="#DejaVuSans-46"
             x="438.94727"
             id="use439"
             y="0"
             width="100%"
             height="100%"
             style="fill:#000000;fill-opacity:1;stroke-linecap:butt;stroke-linejoin:round" />
          <use
             xlink:href="#DejaVuSans-75"
             x="490.9668"
             id="use441"
             y="0"
             width="100%"
             height="100%"
             style="fill:#000000;fill-opacity:1;stroke-linecap:butt;stroke-linejoin:round" />
          <use
             xlink:href="#DejaVuSans-6c"
             x="554.3457"
             id="use443"
             y="0"
             width="100%"
             height="100%"
             style="fill:#000000;fill-opacity:1;stroke-linecap:butt;stroke-linejoin:round" />
          <use
             xlink:href="#DejaVuSans-6c"
             x="582.12891"
             id="use445"
             y="0"
             width="100%"
             height="100%"
             style="fill:#000000;fill-opacity:1;stroke-linecap:butt;stroke-linejoin:round" />
          <use
             xlink:href="#DejaVuSans-29"
             x="609.91211"
             id="use447"
             y="0"
             width="100%"
             height="100%"
             style="fill:#000000;fill-opacity:1;stroke-linecap:butt;stroke-linejoin:round" />
        </g>
      </g>
      <text
         xml:space="preserve"
         style="font-size:12.5329px;font-family:Arial;-inkscape-font-specification:Arial;text-align:center;text-anchor:middle;fill:#000000;fill-opacity:1;stroke:none;stroke-width:1.24165"
         x="246.09779"
         y="572.48743"
         id="text1"><tspan
           sodipodi:role="line"
           id="tspan1"
           style="fill:#000000;fill-opacity:1;stroke:none;stroke-width:1.24165"
           x="246.09779"
           y="572.48743">w/o R and A</tspan></text>
    </g>
  </g>
</svg>
